# Blender v2.79 (sub 0) OBJ File: 'Computer Screen.obj'
# www.blender.org
mtllib Computer Screen.mtl
o mesh1
v -0.714483 1.342569 1.004852
v -0.587365 1.251384 1.021752
v 0.688626 1.253005 1.021451
v 0.810056 1.342568 1.004852
v -0.755590 1.522018 0.971593
v 0.849239 1.522017 0.971593
v -0.580642 2.224581 0.841380
v 0.674292 2.224581 0.841381
v -0.384297 2.382273 0.812154
v 0.475782 2.384083 0.811819
v 0.585660 2.330371 0.821774
vt 0.023199 -0.081296
vt 0.102409 -0.000794
vt 0.897503 -0.002225
vt 0.973169 -0.081296
vt -0.002415 -0.239722
vt 0.997585 -0.239722
vt 0.005866 -0.859978
vt 0.993691 -0.859978
vt 0.155130 -0.999196
vt 0.842783 -1.000793
vt 0.926313 -0.953375
vn 0.0000 0.1822 0.9833
usemtl scrn1
s 1
f 1/1/1 2/2/1 3/3/1
f 3/3/1 4/4/1 1/1/1
f 5/5/1 1/1/1 4/4/1
f 4/4/1 6/6/1 5/5/1
f 7/7/1 5/5/1 6/6/1
f 6/6/1 8/8/1 7/7/1
f 8/8/1 9/9/1 7/7/1
f 8/8/1 10/10/1 9/9/1
f 8/8/1 11/11/1 10/10/1
o mesh0
v -0.280895 1.110408 -0.474028
v -0.110398 1.107831 -0.178730
v -0.027313 1.489828 -0.263464
v -0.105576 1.544622 -0.400322
v -0.110398 1.112985 -0.769327
v -0.280895 1.110408 -0.474028
v -0.105576 1.544622 -0.400322
v -0.027313 1.606284 -0.539806
v 0.230597 1.112985 -0.769327
v -0.110398 1.112985 -0.769327
v -0.027313 1.606284 -0.539806
v 0.129211 1.606284 -0.539806
v 0.349456 1.109876 -0.475944
v 0.230597 1.112985 -0.769327
v 0.129211 1.606284 -0.539806
v 0.183771 1.544630 -0.401235
v 0.178959 1.107300 -0.180645
v 0.349456 1.109876 -0.475944
v 0.183771 1.544630 -0.401235
v 0.105508 1.489836 -0.264376
v -0.110398 1.107831 -0.178730
v 0.178959 1.107300 -0.180645
v 0.105508 1.489836 -0.264376
v -0.027313 1.489828 -0.263464
v 0.183771 1.544630 -0.401235
v 0.129211 1.606284 -0.539806
v 0.113394 1.777052 -0.356395
v -0.013862 1.777052 -0.356395
v -0.027313 1.606284 -0.539806
v -0.013862 1.777052 -0.356395
v 0.011960 1.833941 -0.016412
v -0.077490 1.709962 -0.268962
v -0.105576 1.544622 -0.400322
v -0.013862 1.642872 -0.181529
v -0.027313 1.489828 -0.263464
v 0.094123 1.643144 -0.182219
v 0.094123 1.643144 -0.182219
v 0.098277 1.687404 -0.016412
v 0.105508 1.489836 -0.264376
v 0.013245 1.686662 -0.016412
v -0.077490 1.709962 -0.268962
v -0.013862 1.642872 -0.181529
v 0.013245 1.686662 -0.016412
v 0.157751 1.710234 -0.269652
v 0.113394 1.777052 -0.356395
v 0.096992 1.834683 -0.016412
v 0.157751 1.710234 -0.269652
v 0.140150 1.761415 -0.016412
v 0.098277 1.687404 -0.016412
v 0.140150 1.761415 -0.016412
v 0.096992 1.834683 -0.016412
v 0.098277 1.687404 -0.016412
v 0.140150 1.761415 -0.016412
v 0.257493 1.762439 0.108262
v 0.157835 1.586294 0.108262
v 0.013245 1.686662 -0.016412
v 0.098277 1.687404 -0.016412
v 0.157835 1.586294 0.108262
v 0.297968 1.762792 0.309547
v 0.178379 1.551418 0.309547
v -0.044540 1.584528 0.108262
v 0.157835 1.586294 0.108262
v -0.044540 1.584528 0.108262
v -0.064471 1.549299 0.309547
v 0.174708 1.972046 0.309547
v -0.029913 1.759931 -0.016412
v 0.013245 1.686662 -0.016412
v -0.044540 1.584528 0.108262
v 0.011960 1.833941 -0.016412
v -0.147257 1.758906 0.108262
v -0.147257 1.758906 0.108262
v -0.044540 1.584528 0.108262
v -0.064471 1.549299 0.309547
v -0.187732 1.758553 0.309547
v 0.011960 1.833941 -0.016412
v -0.029913 1.759931 -0.016412
v -0.047599 1.935051 0.108262
v -0.068142 1.969927 0.309547
v 0.096992 1.834683 -0.016412
v 0.154776 1.936817 0.108262
v -0.309471 0.254617 -1.085206
v -0.678405 0.254617 -0.446192
v -0.461321 1.155217 -0.455312
v -0.195575 1.159014 -0.897766
v 0.428399 0.254617 -1.085206
v -0.309471 0.254617 -1.085206
v -0.195575 1.159014 -0.897766
v -0.461321 1.155217 -0.455312
v 0.335916 1.159014 -0.897766
v -0.195575 1.159014 -0.897766
v 0.335916 1.159014 -0.897766
v -0.461321 1.155217 -0.455312
v 0.521177 1.155217 -0.458410
v 0.748968 0.254617 -0.448054
v 0.428399 0.254617 -1.085206
v 0.335916 1.159014 -0.897766
v 0.521177 1.155217 -0.458410
v 0.380033 0.254617 0.190959
v 0.748968 0.254617 -0.448054
v 0.521177 1.155217 -0.458410
v -0.461321 1.155217 -0.455312
v 0.255431 1.150640 -0.015956
v 0.521177 1.155217 -0.458410
v 0.255431 1.150640 -0.015956
v -0.309471 0.254617 0.192821
v 0.380033 0.254617 0.190959
v 0.255431 1.150640 -0.015956
v -0.461321 1.155217 -0.455312
v -0.195575 1.150640 -0.012858
v 0.255431 1.150640 -0.015956
v -0.195575 1.150640 -0.012858
v -0.195575 1.150640 -0.012858
v -0.461321 1.155217 -0.455312
v -0.678405 0.254617 -0.446192
v -0.309471 0.254617 0.192821
v -0.559545 2.457232 0.832261
v -0.438906 2.519432 0.820733
v -0.488537 2.537803 0.569567
v -0.618827 2.470628 0.582017
v -0.658813 2.330454 0.855758
v -0.726037 2.333707 0.607394
v -0.854754 1.488501 1.011804
v -0.755590 1.522018 0.971593
v -0.580642 2.224581 0.841380
v -0.714483 1.342569 1.004852
v -0.808715 1.273449 1.051662
v -0.937653 1.424398 0.775925
v -0.587365 1.251384 1.021752
v -0.666343 1.164173 1.071915
v -0.887930 1.192142 0.818971
v 0.688626 1.253005 1.021451
v 0.762767 1.166116 1.071555
v 0.762767 1.166116 1.071555
v -0.666343 1.164173 1.071915
v -0.734168 1.074124 0.840844
v -0.734168 1.074124 0.840844
v 0.810056 1.342568 1.004852
v 0.806944 1.076222 0.840455
v 0.898769 1.273449 1.051662
v 0.806944 1.076222 0.840455
v 0.849239 1.522017 0.971593
v 0.942654 1.488501 1.011804
v 0.953826 1.192142 0.818971
v 0.674292 2.224581 0.841381
v 1.003548 1.424398 0.775925
v 0.746713 2.330454 0.855758
v 0.585660 2.330371 0.821774
v 0.647445 2.457232 0.832261
v 0.791932 2.333707 0.607394
v 0.475782 2.384083 0.811819
v 0.524382 2.521600 0.820331
v 0.684723 2.470628 0.582017
v -0.384297 2.382273 0.812154
v 0.551815 2.540145 0.569133
v 0.862603 1.229369 0.661988
v 1.003548 1.424398 0.775925
v 0.953826 1.192142 0.818971
v 0.791932 2.333707 0.607394
v 0.806944 1.076222 0.840455
v 0.620168 2.381158 0.448517
v 0.684723 2.470628 0.582017
v 0.551815 2.540145 0.569133
v -0.488537 2.537803 0.569567
v 0.383248 1.526799 0.257373
v -0.268683 1.526536 0.257375
v 0.293144 1.984968 0.253375
v -0.179741 1.984674 0.253377
v -0.796637 1.229370 0.661988
v -0.734168 1.074124 0.840844
v -0.887930 1.192142 0.818971
v -0.937653 1.424398 0.775925
v -0.554202 2.381159 0.448517
v -0.618827 2.470628 0.582017
v -0.726037 2.333707 0.607394
v -0.310538 2.434346 0.981824
v -0.420410 2.621463 0.947144
v -0.750027 2.434346 0.981824
v -0.640155 2.247229 1.016504
v -0.640155 2.621463 0.947144
v -0.420410 2.247229 1.016504
v -0.420410 2.621463 0.947144
v -0.310538 2.434346 0.981824
v -0.279774 2.426170 0.937714
v -0.640155 2.621463 0.947144
v -0.405028 2.639484 0.898179
v -0.750027 2.434346 0.981824
v -0.655537 2.639484 0.898179
v -0.640155 2.247229 1.016504
v -0.780791 2.426171 0.937714
v -0.420410 2.247229 1.016504
v -0.405028 2.212857 0.977249
v -0.655537 2.212857 0.977249
v -0.405028 2.639484 0.898179
v -0.279774 2.426170 0.937714
v -0.321526 2.388334 0.733567
v -0.425904 2.210573 0.766513
v -0.405028 2.212857 0.977249
v -0.486426 2.290209 0.620961
v -0.634661 2.210573 0.766513
v -0.655537 2.212857 0.977249
v -0.574139 2.290209 0.620961
v -0.442569 2.364898 0.607118
v -0.425904 2.566095 0.700620
v -0.655537 2.639484 0.898179
v -0.617996 2.364898 0.607118
v -0.486426 2.439588 0.593275
v -0.739039 2.388334 0.733567
v -0.780791 2.426171 0.937714
v -0.634661 2.566095 0.700620
v -0.574139 2.439588 0.593275
v 0.586649 -0.003769 -1.360622
v -0.497422 -0.003769 -1.360622
v -0.369154 0.273198 -1.138455
v 0.458381 0.273198 -1.138455
v 1.128685 -0.003769 -0.421789
v -0.782922 0.273198 -0.421789
v -1.039458 -0.003769 -0.421789
v 0.872149 0.273198 -0.421789
v 0.586649 -0.003769 0.517044
v 0.458381 0.273198 0.294877
v -0.497423 -0.003769 0.517044
v -0.369154 0.273198 0.294877
vt 0.268193 -0.393674
vt 0.300267 -0.347854
vt 0.272775 -0.402838
vt 0.254774 -0.430585
vt 0.268193 -0.393674
vt 0.300267 -0.347854
vt 0.272775 -0.402838
vt 0.254808 -0.430319
vt 0.268193 -0.393674
vt 0.300267 -0.347854
vt 0.272775 -0.402838
vt 0.258052 -0.423871
vt 0.268193 -0.393674
vt 0.300267 -0.347854
vt 0.272775 -0.402838
vt 0.258721 -0.421244
vt 0.268193 -0.393674
vt 0.300267 -0.347854
vt 0.272775 -0.402838
vt 0.259528 -0.419932
vt 0.268193 -0.393674
vt 0.300267 -0.347854
vt 0.272775 -0.402838
vt 0.258064 -0.423843
vt 0.268193 -0.393674
vt 0.268193 -0.393674
vt 0.268193 -0.393674
vt 0.268193 -0.393674
vt 0.268193 -0.393674
vt 0.291103 -0.347854
vt 0.300267 -0.347854
vt 0.291103 -0.347854
vt 0.291103 -0.347854
vt 0.268193 -0.393674
vt 0.268193 -0.393674
vt 0.268193 -0.393674
vt 0.291103 -0.347854
vt 0.300267 -0.347854
vt 0.268193 -0.393674
vt 0.282194 -0.383929
vt 0.272775 -0.402838
vt 0.245795 -0.435975
vt 0.268193 -0.393674
vt 0.268193 -0.393674
vt 0.291103 -0.347854
vt 0.300267 -0.347854
vt 0.291103 -0.347854
vt 0.300267 -0.347854
vt 0.278693 -0.385692
vt 0.277639 -0.388918
vt 0.284963 -0.378468
vt 0.113771 -0.389315
vt 0.148099 -0.389315
vt 0.148099 -0.315104
vt 0.113771 -0.315104
vt 0.300267 -0.347854
vt 0.290641 -0.367107
vt 0.268193 -0.393674
vt 0.148099 -0.195290
vt 0.113771 -0.195290
vt 0.056812 -0.315104
vt 0.104278 -0.315104
vt 0.291103 -0.347854
vt 0.056812 -0.195290
vt 0.182757 -0.195290
vt 0.300267 -0.347854
vt 0.290641 -0.367106
vt 0.268193 -0.393674
vt 0.286270 -0.380347
vt 0.291103 -0.347854
vt 0.274044 -0.315104
vt 0.308701 -0.315104
vt 0.308701 -0.195290
vt 0.274044 -0.195290
vt 0.239716 -0.389315
vt 0.274044 -0.389315
vt 0.239716 -0.315104
vt 0.239716 -0.195290
vt 0.182757 -0.389315
vt 0.182757 -0.315104
vt 0.877233 -0.012008
vt 0.782009 -0.012008
vt 0.787156 -0.321133
vt 0.853695 -0.322983
vt 0.877233 -0.012008
vt 0.782009 -0.012008
vt 0.787156 -0.321133
vt 0.183401 -0.386728
vt 0.233032 -0.400847
vt 0.205402 -0.398500
vt 0.855747 -0.321133
vt 0.183401 -0.386728
vt 0.209086 -0.387305
vt 0.877233 -0.012008
vt 0.782009 -0.012008
vt 0.787156 -0.321133
vt 0.850645 -0.321828
vt 0.877233 -0.012008
vt 0.782009 -0.012008
vt 0.787156 -0.321133
vt 0.183401 -0.386728
vt 0.244873 -0.373007
vt 0.209086 -0.387305
vt 0.853777 -0.320293
vt 0.683054 -0.010544
vt 0.283454 -0.010581
vt 0.383299 -0.321323
vt 0.183401 -0.386728
vt 0.567773 -0.371798
vt 0.244873 -0.373007
vt 0.585919 -0.321276
vt 0.787156 -0.321133
vt 0.888531 -0.320924
vt 0.877233 -0.012008
vt 0.782009 -0.012008
vt 0.300392 -0.349234
vt 0.303526 -0.347094
vt 0.302237 -0.344935
vt 0.298852 -0.347246
vt 0.297813 -0.353596
vt 0.296066 -0.351956
vt 0.292722 -0.382561
vt 0.292722 -0.382561
vt 0.297813 -0.353596
vt 0.293918 -0.389960
vt 0.293918 -0.389960
vt 0.290568 -0.383239
vt 0.297617 -0.393719
vt 0.297617 -0.393719
vt 0.291860 -0.391230
vt 0.334692 -0.393652
vt 0.334692 -0.393652
vt 0.339422 -0.382561
vt 0.336145 -0.385985
vt 0.334692 -0.393652
vt 0.295855 -0.395290
vt 0.338225 -0.389960
vt 0.338225 -0.389960
vt 0.338225 -0.389960
vt 0.335896 -0.395218
vt 0.339422 -0.382561
vt 0.339422 -0.382561
vt 0.339712 -0.391230
vt 0.334331 -0.353596
vt 0.341004 -0.383239
vt 0.334331 -0.353596
vt 0.331752 -0.349234
vt 0.331752 -0.349234
vt 0.335506 -0.351956
vt 0.328554 -0.347020
vt 0.328554 -0.347020
vt 0.332720 -0.347246
vt 0.303526 -0.347094
vt 0.329267 -0.344854
vt 0.000000 -1.000000
vt 0.000000 -1.000000
vt 0.000000 -1.000000
vt 0.000000 -1.000000
vt 0.000000 -1.000000
vt 0.000000 -1.000000
vt 0.000000 -1.000000
vt 0.000000 -1.000000
vt 0.000000 -1.000000
vt 0.000000 -1.000000
vt 0.000000 -1.000000
vt 0.000000 -1.000000
vt 0.000000 -1.000000
vt 0.000000 -1.000000
vt 0.000000 -1.000000
vt 0.000000 -1.000000
vt 0.000000 -1.000000
vt 0.000000 -1.000000
vt 0.000000 -1.000000
vt 0.000000 -1.000000
vt 0.346702 -0.707729
vt 0.512161 -0.994586
vt 1.008538 -0.707730
vt 0.843079 -0.420873
vt 0.843079 -0.994587
vt 0.512161 -0.420872
vt 0.282217 -0.180303
vt 0.265737 -0.147343
vt 0.261123 -0.147343
vt 0.315178 -0.180303
vt 0.279910 -0.184918
vt 0.331658 -0.147343
vt 0.317485 -0.184918
vt 0.315178 -0.114383
vt 0.336272 -0.147343
vt 0.282217 -0.114383
vt 0.279910 -0.109769
vt 0.317485 -0.109769
vt 0.272330 -0.415291
vt 0.251882 -0.374396
vt 0.258698 -0.374396
vt 0.275737 -0.340317
vt 0.272330 -0.333502
vt 0.285617 -0.360077
vt 0.309816 -0.340317
vt 0.313224 -0.333502
vt 0.299936 -0.360077
vt 0.278458 -0.374396
vt 0.275737 -0.408475
vt 0.313224 -0.415291
vt 0.307096 -0.374396
vt 0.285617 -0.388715
vt 0.326855 -0.374396
vt 0.333671 -0.374396
vt 0.309816 -0.408475
vt 0.299936 -0.388715
vt 0.284284 -0.331311
vt 0.324953 -0.331311
vt 0.320141 -0.340935
vt 0.289096 -0.340935
vt 0.263949 -0.371981
vt 0.335663 -0.371981
vt 0.345288 -0.371981
vt 0.273573 -0.371981
vt 0.284284 -0.412650
vt 0.289096 -0.403026
vt 0.324953 -0.412650
vt 0.320141 -0.403026
vn -0.9208 0.3891 -0.0261
vn -0.4908 0.2890 0.8220
vn -0.5512 -0.0281 0.8339
vn -0.9673 0.2501 0.0422
vn -0.4415 0.4557 -0.7730
vn -0.4713 0.5496 -0.6898
vn 0.4853 0.4489 -0.7503
vn -0.4414 0.4557 -0.7730
vn -0.4713 0.5497 -0.6897
vn 0.5335 0.5653 -0.6291
vn 0.9440 0.3274 0.0411
vn 0.5335 0.5653 -0.6292
vn 0.9649 0.2228 0.1387
vn 0.4893 0.2616 0.8320
vn 0.4769 -0.0691 0.8762
vn 0.4770 -0.0692 0.8762
vn -0.5512 -0.0280 0.8339
vn 0.5062 0.7808 -0.3662
vn -0.4232 0.8210 -0.3831
vn -0.4233 0.8210 -0.3831
vn -0.4815 0.7606 -0.4354
vn -0.9834 0.1554 0.0938
vn -0.4956 -0.6306 0.5973
vn 0.5244 -0.6658 0.5307
vn 0.5167 -0.8010 -0.3025
vn 0.4770 -0.0691 0.8762
vn -0.4566 -0.8555 -0.2441
vn -0.9834 0.1555 0.0938
vn -0.4566 -0.8555 -0.2442
vn 0.9911 0.0896 0.0987
vn 0.9911 0.0896 0.0986
vn 0.3856 0.8085 -0.4446
vn 0.5244 -0.6658 0.5308
vn 0.9231 0.0507 -0.3812
vn 0.9231 0.0507 -0.3811
vn 0.9004 0.0281 -0.4341
vn 0.4746 -0.7657 -0.4341
vn 0.9803 0.0086 -0.1971
vn 0.4976 -0.8447 -0.1972
vn -0.4258 -0.7939 -0.4341
vn -0.4828 -0.8533 -0.1972
vn 0.4828 0.8533 -0.1971
vn -0.9491 -0.0104 -0.3149
vn -0.9490 -0.0104 -0.3150
vn -0.9004 -0.0281 -0.4341
vn -0.9803 -0.0086 -0.1971
vn -0.4746 0.7657 -0.4341
vn -0.4976 0.8447 -0.1971
vn 0.4259 0.7939 -0.4341
vn -0.4857 0.2325 -0.8427
vn -0.9712 0.2383 0.0054
vn -0.9705 0.2381 -0.0390
vn -0.4445 0.2351 -0.8644
vn 0.5060 0.2243 -0.8328
vn -0.4857 0.2324 -0.8427
vn 0.0000 1.0000 0.0086
vn 0.5647 0.2411 -0.7893
vn 0.9719 0.2325 0.0381
vn 0.5646 0.2411 -0.7893
vn 0.9630 0.2500 0.1006
vn 0.4831 0.2564 0.8372
vn 0.0000 0.9999 0.0104
vn 0.4365 0.2585 0.8617
vn -0.4809 0.2546 0.8390
vn 0.0001 0.9999 0.0103
vn -0.5169 0.2482 0.8193
vn -0.9705 0.2380 -0.0390
vn -0.4810 0.2546 0.8390
vn -0.6017 0.7772 0.1841
vn -0.1939 0.8729 0.4478
vn -0.2299 0.9195 -0.3188
vn -0.6435 0.7267 -0.2406
vn -0.7244 0.4711 0.5033
vn -0.9021 0.4087 -0.1386
vn -0.5172 0.1782 0.8371
vn 0.3181 0.1714 0.9324
vn 0.3078 0.0987 0.9463
vn 0.2408 0.2994 0.9233
vn -0.4600 -0.1013 0.8821
vn -0.9917 -0.0090 -0.1285
vn 0.1011 0.4291 0.8976
vn -0.1722 -0.3326 0.9272
vn -0.8409 -0.5397 -0.0410
vn -0.0954 0.4349 0.8954
vn 0.1759 -0.4169 0.8918
vn -0.1723 -0.3326 0.9272
vn -0.3166 -0.9480 -0.0330
vn -0.2209 0.3321 0.9170
vn 0.3107 -0.9475 -0.0757
vn 0.4779 -0.1469 0.8660
vn 0.3108 -0.9475 -0.0757
vn -0.3353 0.1720 0.9263
vn 0.5760 0.1524 0.8031
vn 0.8373 -0.5415 -0.0759
vn -0.2651 0.0484 0.9630
vn 0.9922 -0.0157 -0.1237
vn 0.5198 0.3668 0.7715
vn -0.1618 -0.0055 0.9868
vn 0.3708 0.5657 0.7365
vn 0.8966 0.3721 -0.2402
vn -0.0615 -0.0419 0.9972
vn 0.1379 0.6774 0.7226
vn 0.6402 0.7209 -0.2653
vn 0.0006 -0.0622 0.9981
vn 0.2379 0.9274 -0.2887
vn 0.4802 -0.4976 -0.7224
vn 0.4078 0.3810 -0.8298
vn 0.3171 -0.1717 -0.9327
vn -0.1915 -0.3515 -0.9164
vn 0.1021 0.2224 -0.9696
vn -0.2618 0.0793 -0.9619
vn -0.4731 -0.4898 -0.7323
vn -0.3165 -0.9480 -0.0330
vn -0.9917 -0.0089 -0.1285
vn -0.4016 0.3656 -0.8397
vn -0.6435 0.7266 -0.2406
vn 0.5244 0.1117 0.8441
vn 0.3003 0.5798 0.7574
vn -0.5244 0.1982 0.8281
vn -0.3003 -0.2699 0.9149
vn -0.2795 0.7213 0.6337
vn 0.2795 -0.4463 0.8501
vn 0.5243 0.1117 0.8441
vn 0.9838 0.0327 0.1763
vn 0.4919 0.8704 0.0210
vn -0.5243 0.1982 0.8281
vn -0.4919 0.8704 0.0210
vn -0.9838 0.0326 0.1763
vn 0.2794 -0.4463 0.8501
vn 0.4919 -0.8050 0.3316
vn -0.4919 -0.8051 0.3316
vn 0.9006 -0.0591 -0.4305
vn 0.4679 -0.8361 -0.2865
vn 0.4919 -0.8051 0.3316
vn 0.3481 -0.5981 -0.7218
vn -0.4328 -0.8560 -0.2828
vn -0.1782 -0.5809 -0.7942
vn 0.4584 -0.1036 -0.8827
vn 0.4328 0.6978 -0.5708
vn -0.4584 -0.2196 -0.8612
vn 0.1782 0.2577 -0.9496
vn -0.9006 -0.0991 -0.4231
vn -0.9838 0.0327 0.1763
vn -0.4679 0.6779 -0.5671
vn -0.3481 0.2997 -0.8882
vn 0.3668 0.6795 -0.6354
vn -0.3668 0.6795 -0.6354
vn -0.2238 0.8153 -0.5340
vn 0.2822 0.8847 -0.3710
vn 0.7336 0.6795 0.0000
vn -0.4625 0.8847 -0.0589
vn -0.7336 0.6795 0.0000
vn 0.4625 0.8847 0.0589
vn 0.3668 0.6795 0.6354
vn 0.1802 0.8847 0.4300
vn -0.3668 0.6795 0.6354
vn -0.3505 0.8153 0.4608
usemtl OMmonp
s 1
f 12/12/2 13/13/3 14/14/4
f 14/14/4 15/15/5 12/12/2
f 16/16/6 17/17/2 18/18/5
f 18/18/5 19/19/7 16/16/6
f 20/20/8 21/21/9 22/22/10
f 22/22/10 23/23/11 20/20/8
f 24/24/12 25/25/8 26/26/13
f 26/26/13 27/27/14 24/24/12
f 28/28/15 29/29/12 30/30/14
f 30/30/14 31/31/16 28/28/15
f 32/32/3 33/33/15 34/34/17
f 34/34/17 35/35/18 32/32/3
f 36/36/14 37/37/11 38/38/19
f 39/39/20 38/38/19 37/37/11
f 37/37/11 40/40/7 39/39/20
f 38/38/19 41/41/21 42/42/22
f 43/43/23 39/39/20 40/40/7
f 40/40/7 44/44/5 43/43/23
f 45/45/24 43/43/23 44/44/5
f 44/44/5 46/46/4 45/45/24
f 47/47/25 45/45/24 46/46/4
f 45/45/24 48/48/25 49/49/26
f 46/46/4 50/50/27 47/47/25
f 49/49/26 51/51/28 45/45/24
f 52/52/29 53/53/24 54/54/30
f 55/55/31 47/47/25 50/50/27
f 50/50/27 36/36/14 55/55/31
f 38/38/19 55/55/31 36/36/14
f 55/55/32 56/56/19 57/57/33
f 47/47/34 58/58/32 59/59/35
f 59/59/35 60/60/26 47/47/34
f 57/57/33 61/61/36 55/55/32
f 42/42/22 62/62/33 38/38/19
f 63/63/26 64/64/35 65/65/37
f 65/65/37 66/66/38 63/63/26
f 67/67/28 68/68/26 69/69/38
f 66/66/38 65/65/37 70/70/39
f 70/70/39 71/71/40 66/66/38
f 72/72/41 73/73/38 71/71/40
f 69/69/38 74/74/41 67/67/28
f 71/71/40 75/75/42 72/72/41
f 76/76/43 70/70/39 65/65/37
f 77/77/44 78/78/28 79/79/41
f 54/54/30 77/77/45 52/52/29
f 39/39/20 43/43/23 77/77/44
f 77/77/44 80/80/22 39/39/20
f 79/79/41 81/81/46 77/77/44
f 82/82/46 83/83/41 84/84/42
f 84/84/42 85/85/47 82/82/46
f 86/86/22 87/87/44 82/82/46
f 88/88/48 82/82/46 85/85/47
f 82/82/46 88/88/48 86/86/22
f 85/85/47 89/89/49 88/88/48
f 90/90/33 86/86/22 88/88/48
f 91/91/50 88/88/48 89/89/49
f 88/88/48 91/91/50 90/90/33
f 89/89/49 76/76/43 91/91/50
f 64/64/35 90/90/33 91/91/50
f 65/65/37 91/91/50 76/76/43
f 91/91/50 65/65/37 64/64/35
f 92/92/51 93/93/52 94/94/53
f 94/94/53 95/95/54 92/92/51
f 96/96/55 97/97/56 98/98/54
f 99/99/57 100/100/57 101/101/57
f 98/98/54 102/102/58 96/96/55
f 103/103/57 104/104/57 100/100/57
f 105/105/59 106/106/55 107/107/60
f 107/107/60 108/108/61 105/105/59
f 109/109/62 110/110/59 111/111/61
f 112/112/63 113/113/63 114/114/63
f 111/111/61 115/115/64 109/109/62
f 116/116/65 117/117/62 118/118/64
f 119/119/66 120/120/66 121/121/66
f 118/118/64 122/122/67 116/116/65
f 123/123/67 124/124/68 125/125/52
f 125/125/52 126/126/69 123/123/67
f 127/127/70 128/128/71 129/129/72
f 129/129/72 130/130/73 127/127/70
f 131/131/74 127/127/70 130/130/73
f 130/130/73 132/132/75 131/131/74
f 133/133/76 131/131/74 132/132/75
f 131/131/74 133/133/76 134/134/77
f 134/134/77 135/135/78 131/131/74
f 136/136/79 134/134/77 133/133/76
f 133/133/76 137/137/80 136/136/79
f 137/137/80 133/133/76 138/138/81
f 132/132/75 138/138/81 133/133/76
f 139/139/82 136/136/79 137/137/80
f 137/137/80 140/140/83 139/139/82
f 140/140/83 137/137/80 141/141/84
f 138/138/81 141/141/84 137/137/80
f 142/142/85 139/139/82 140/140/83
f 140/140/83 143/143/86 142/142/85
f 144/144/86 145/145/87 146/146/88
f 141/141/84 147/147/88 140/140/83
f 148/148/89 142/142/85 143/143/86
f 146/146/88 149/149/90 144/144/86
f 143/143/86 150/150/91 148/148/89
f 150/150/91 143/143/86 151/151/92
f 152/152/93 148/148/89 150/150/91
f 150/150/91 153/153/94 152/152/93
f 153/153/94 150/150/91 154/154/95
f 151/151/92 154/154/95 150/150/91
f 155/155/96 152/152/93 153/153/94
f 154/154/95 156/156/97 153/153/94
f 153/153/94 157/157/98 155/155/96
f 157/157/98 153/153/94 156/156/97
f 158/158/99 155/155/96 157/157/98
f 157/157/98 159/159/100 158/158/99
f 159/159/100 157/157/98 160/160/101
f 156/156/97 160/160/101 157/157/98
f 161/161/102 158/158/99 159/159/100
f 159/159/100 162/162/103 161/161/102
f 162/162/103 159/159/100 163/163/104
f 160/160/101 163/163/104 159/159/100
f 164/164/105 161/161/102 162/162/103
f 162/162/103 128/128/71 164/164/105
f 128/128/71 162/162/103 165/165/106
f 163/163/104 165/165/106 162/162/103
f 165/165/106 129/129/72 128/128/71
f 166/166/107 167/167/97 168/168/95
f 169/169/101 167/167/97 166/166/107
f 166/166/107 168/168/95 170/170/92
f 171/171/108 172/172/104 169/169/101
f 166/166/107 171/171/108 169/169/101
f 171/171/108 173/173/106 172/172/104
f 174/174/72 173/173/106 171/171/108
f 171/171/108 166/166/107 175/175/109
f 176/176/110 175/175/109 166/166/107
f 175/175/109 177/177/111 171/171/108
f 175/175/109 176/176/110 178/178/112
f 178/178/112 177/177/111 175/175/109
f 166/166/107 179/179/113 176/176/110
f 179/179/113 166/166/107 170/170/92
f 178/178/112 176/176/110 179/179/113
f 170/170/92 180/180/114 179/179/113
f 179/179/113 180/180/114 181/181/84
f 179/179/113 181/181/84 182/182/115
f 183/183/116 171/171/108 177/177/111
f 171/171/108 183/183/116 174/174/72
f 177/177/111 178/178/112 183/183/116
f 179/179/113 183/183/116 178/178/112
f 183/183/116 179/179/113 182/182/115
f 183/183/116 184/184/117 174/174/72
f 182/182/115 185/185/75 183/183/116
f 183/183/116 185/185/75 184/184/117
f 186/186/118 187/187/119 188/188/120
f 189/189/121 186/186/118 188/188/120
f 187/187/119 190/190/122 188/188/120
f 189/189/121 191/191/123 186/186/118
f 192/192/119 193/193/124 194/194/125
f 195/195/122 192/192/119 196/196/126
f 194/194/125 196/196/126 192/192/119
f 197/197/127 195/195/122 198/198/128
f 196/196/126 198/198/128 195/195/122
f 199/199/121 197/197/127 200/200/129
f 198/198/128 200/200/129 197/197/127
f 193/193/124 201/201/130 202/202/131
f 202/202/131 194/194/125 193/193/124
f 201/201/130 199/199/121 203/203/132
f 200/200/129 203/203/132 199/199/121
f 203/203/132 202/202/131 201/201/130
f 204/204/126 205/205/125 206/206/133
f 207/207/134 206/206/133 205/205/125
f 205/205/125 208/208/135 207/207/134
f 206/206/133 207/207/134 209/209/136
f 210/210/137 207/207/134 208/208/135
f 208/208/135 211/211/132 210/210/137
f 212/212/138 209/209/136 207/207/134
f 207/207/134 210/210/137 212/212/138
f 209/209/136 213/213/139 206/206/133
f 212/212/138 213/213/139 209/209/136
f 206/206/133 214/214/140 204/204/126
f 214/214/140 206/206/133 213/213/139
f 215/215/128 204/204/126 214/214/140
f 212/212/138 216/216/141 213/213/139
f 216/216/141 212/212/138 210/210/137
f 216/216/141 217/217/142 213/213/139
f 213/213/139 217/217/142 214/214/140
f 218/218/143 210/210/137 211/211/132
f 210/210/137 218/218/143 216/216/141
f 211/211/132 219/219/144 218/218/143
f 214/214/140 220/220/145 215/215/128
f 220/220/145 214/214/140 217/217/142
f 220/220/145 218/218/143 219/219/144
f 219/219/144 215/215/128 220/220/145
f 216/216/141 221/221/146 217/217/142
f 221/221/146 216/216/141 218/218/143
f 217/217/142 221/221/146 220/220/145
f 218/218/143 220/220/145 221/221/146
f 222/222/147 223/223/148 224/224/149
f 224/224/149 225/225/150 222/222/147
f 226/226/151 222/222/147 225/225/150
f 227/227/152 224/224/149 223/223/148
f 227/227/152 225/225/150 224/224/149
f 223/223/148 228/228/153 227/227/152
f 225/225/150 229/229/154 226/226/151
f 227/227/152 229/229/154 225/225/150
f 230/230/155 226/226/151 229/229/154
f 229/229/154 231/231/156 230/230/155
f 227/227/152 231/231/156 229/229/154
f 232/232/157 230/230/155 231/231/156
f 233/233/158 227/227/152 228/228/153
f 227/227/152 233/233/158 231/231/156
f 231/231/156 233/233/158 232/232/157
f 228/228/153 232/232/157 233/233/158
