# Blender 4.1.1
# www.blender.org
mtllib 1 M 2.mtl
o Text.071
v 3.300442 2.995099 0.051772
v 3.367602 2.995099 0.012998
v 3.367602 2.467565 0.012998
v 3.253601 2.467565 0.078817
v 3.253601 2.750394 0.078817
v 3.253582 2.760264 0.078827
v 3.253530 2.769455 0.078858
v 3.253442 2.777968 0.078908
v 3.253318 2.785801 0.078980
v 3.253160 2.792956 0.079071
v 3.252964 2.799432 0.079184
v 3.252735 2.805229 0.079317
v 3.252471 2.810348 0.079469
v 3.252170 2.814787 0.079643
v 3.251835 2.818548 0.079836
v 3.251465 2.821630 0.080050
v 3.251060 2.824033 0.080284
v 3.250574 2.826055 0.080564
v 3.249967 2.827993 0.080915
v 3.249235 2.829847 0.081337
v 3.248379 2.831618 0.081831
v 3.247400 2.833305 0.082397
v 3.246298 2.834908 0.083033
v 3.245072 2.836427 0.083741
v 3.243723 2.837863 0.084520
v 3.242251 2.839215 0.085370
v 3.240655 2.840483 0.086291
v 3.238936 2.841668 0.087284
v 3.237092 2.842769 0.088348
v 3.234993 2.843784 0.089560
v 3.232504 2.844710 0.090997
v 3.229625 2.845549 0.092659
v 3.226356 2.846299 0.094547
v 3.222695 2.846961 0.096660
v 3.218645 2.847534 0.098998
v 3.214205 2.848020 0.101562
v 3.209375 2.848417 0.104350
v 3.204155 2.848726 0.107364
v 3.198545 2.848946 0.110603
v 3.192546 2.849079 0.114067
v 3.186157 2.849123 0.117755
v 3.174870 2.849123 0.124272
v 3.174870 2.910706 0.124272
v 3.188374 2.914429 0.116475
v 3.201324 2.918753 0.108999
v 3.213722 2.923679 0.101840
v 3.225568 2.929207 0.095002
v 3.236861 2.935337 0.088481
v 3.247601 2.942068 0.082281
v 3.257789 2.949402 0.076398
v 3.267425 2.957337 0.070835
v 3.276508 2.965875 0.065591
v 3.285038 2.975014 0.060666
v 3.293016 2.984756 0.056060
v 3.240443 2.995099 -0.052151
v 3.307602 2.995099 -0.090925
v 3.307602 2.467565 -0.090925
v 3.193601 2.467565 -0.025106
v 3.193600 2.750393 -0.025106
v 3.193582 2.760264 -0.025096
v 3.193529 2.769455 -0.025065
v 3.193442 2.777968 -0.025015
v 3.193318 2.785801 -0.024943
v 3.193160 2.792956 -0.024852
v 3.192965 2.799432 -0.024739
v 3.192735 2.805229 -0.024606
v 3.192471 2.810348 -0.024454
v 3.192170 2.814787 -0.024280
v 3.191835 2.818548 -0.024087
v 3.191465 2.821630 -0.023873
v 3.191060 2.824033 -0.023639
v 3.190574 2.826055 -0.023359
v 3.189966 2.827993 -0.023008
v 3.189235 2.829847 -0.022586
v 3.188379 2.831618 -0.022092
v 3.187400 2.833305 -0.021526
v 3.186298 2.834908 -0.020890
v 3.185072 2.836427 -0.020182
v 3.183723 2.837863 -0.019403
v 3.182251 2.839215 -0.018554
v 3.180655 2.840483 -0.017632
v 3.178936 2.841668 -0.016640
v 3.177092 2.842769 -0.015575
v 3.174993 2.843784 -0.014363
v 3.172503 2.844710 -0.012926
v 3.169624 2.845549 -0.011264
v 3.166356 2.846299 -0.009376
v 3.162695 2.846961 -0.007263
v 3.158645 2.847534 -0.004925
v 3.154205 2.848020 -0.002361
v 3.149375 2.848417 0.000427
v 3.144155 2.848726 0.003441
v 3.138546 2.848946 0.006680
v 3.132546 2.849079 0.010143
v 3.126157 2.849123 0.013832
v 3.114870 2.849123 0.020349
v 3.114870 2.910706 0.020349
v 3.128374 2.914428 0.012552
v 3.141324 2.918753 0.005076
v 3.153723 2.923679 -0.002083
v 3.165568 2.929207 -0.008921
v 3.176861 2.935337 -0.015442
v 3.187601 2.942068 -0.021643
v 3.197789 2.949402 -0.027525
v 3.207424 2.957337 -0.033088
v 3.216508 2.965875 -0.038332
v 3.225038 2.975014 -0.043257
v 3.233016 2.984756 -0.047863
v 3.240443 2.995099 -0.052151
v 3.300442 2.995099 0.051772
v 3.307602 2.995099 -0.090925
v 3.367602 2.995099 0.012998
v 3.307602 2.467565 -0.090925
v 3.367602 2.467565 0.012998
v 3.193601 2.467565 -0.025106
v 3.253601 2.467565 0.078817
v 3.193600 2.750393 -0.025106
v 3.253601 2.750394 0.078817
v 3.193582 2.760264 -0.025096
v 3.253582 2.760264 0.078827
v 3.193529 2.769455 -0.025065
v 3.253530 2.769455 0.078858
v 3.193442 2.777968 -0.025015
v 3.253442 2.777968 0.078908
v 3.193318 2.785801 -0.024943
v 3.253318 2.785801 0.078980
v 3.193160 2.792956 -0.024852
v 3.253160 2.792956 0.079071
v 3.192965 2.799432 -0.024739
v 3.252964 2.799432 0.079184
v 3.192735 2.805229 -0.024606
v 3.252735 2.805229 0.079317
v 3.192471 2.810348 -0.024454
v 3.252471 2.810348 0.079469
v 3.192170 2.814787 -0.024280
v 3.252170 2.814787 0.079643
v 3.191835 2.818548 -0.024087
v 3.251835 2.818548 0.079836
v 3.191465 2.821630 -0.023873
v 3.251465 2.821630 0.080050
v 3.191060 2.824033 -0.023639
v 3.251060 2.824033 0.080284
v 3.190574 2.826055 -0.023359
v 3.250574 2.826055 0.080564
v 3.189966 2.827993 -0.023008
v 3.249967 2.827993 0.080915
v 3.189235 2.829847 -0.022586
v 3.249235 2.829847 0.081337
v 3.188379 2.831618 -0.022092
v 3.248379 2.831618 0.081831
v 3.187400 2.833305 -0.021526
v 3.247400 2.833305 0.082397
v 3.186298 2.834908 -0.020890
v 3.246298 2.834908 0.083033
v 3.185072 2.836427 -0.020182
v 3.245072 2.836427 0.083741
v 3.183723 2.837863 -0.019403
v 3.243723 2.837863 0.084520
v 3.182251 2.839215 -0.018554
v 3.242251 2.839215 0.085370
v 3.180655 2.840483 -0.017632
v 3.240655 2.840483 0.086291
v 3.178936 2.841668 -0.016640
v 3.238936 2.841668 0.087284
v 3.177092 2.842769 -0.015575
v 3.237092 2.842769 0.088348
v 3.174993 2.843784 -0.014363
v 3.234993 2.843784 0.089560
v 3.172503 2.844710 -0.012926
v 3.232504 2.844710 0.090997
v 3.169624 2.845549 -0.011264
v 3.229625 2.845549 0.092659
v 3.166356 2.846299 -0.009376
v 3.226356 2.846299 0.094547
v 3.162695 2.846961 -0.007263
v 3.222695 2.846961 0.096660
v 3.158645 2.847534 -0.004925
v 3.218645 2.847534 0.098998
v 3.154205 2.848020 -0.002361
v 3.214205 2.848020 0.101562
v 3.149375 2.848417 0.000427
v 3.209375 2.848417 0.104350
v 3.144155 2.848726 0.003441
v 3.204155 2.848726 0.107364
v 3.138546 2.848946 0.006680
v 3.198545 2.848946 0.110603
v 3.132546 2.849079 0.010143
v 3.192546 2.849079 0.114067
v 3.126157 2.849123 0.013832
v 3.186157 2.849123 0.117755
v 3.114870 2.849123 0.020349
v 3.174870 2.849123 0.124272
v 3.114870 2.910706 0.020349
v 3.174870 2.910706 0.124272
v 3.128374 2.914428 0.012552
v 3.188374 2.914429 0.116475
v 3.141324 2.918753 0.005076
v 3.201324 2.918753 0.108999
v 3.153723 2.923679 -0.002083
v 3.213722 2.923679 0.101840
v 3.165568 2.929207 -0.008921
v 3.225568 2.929207 0.095002
v 3.176861 2.935337 -0.015442
v 3.236861 2.935337 0.088481
v 3.187601 2.942068 -0.021643
v 3.247601 2.942068 0.082281
v 3.197789 2.949402 -0.027525
v 3.257789 2.949402 0.076398
v 3.207424 2.957337 -0.033088
v 3.267425 2.957337 0.070835
v 3.216508 2.965875 -0.038332
v 3.276508 2.965875 0.065591
v 3.225038 2.975014 -0.043257
v 3.285038 2.975014 0.060666
v 3.233016 2.984756 -0.047863
v 3.293016 2.984756 0.056060
vn 0.5000 -0.0000 0.8660
vn 0.5001 -0.0000 0.8660
vn 0.4999 -0.0000 0.8661
vn 0.5000 -0.0001 0.8660
vn 0.5002 -0.0000 0.8659
vn 0.5003 -0.0000 0.8659
vn 0.5001 0.0001 0.8659
vn 0.4999 -0.0001 0.8661
vn 0.5001 0.0002 0.8660
vn 0.4998 0.0002 0.8661
vn 0.5001 0.0001 0.8660
vn 0.5000 -0.0000 0.8661
vn 0.4998 -0.0000 0.8662
vn 0.5002 0.0001 0.8659
vn -0.5000 -0.0000 -0.8660
vn -0.5001 -0.0000 -0.8660
vn -0.5000 -0.0000 -0.8661
vn -0.4999 -0.0000 -0.8661
vn -0.4998 -0.0000 -0.8661
vn -0.4999 0.0001 -0.8661
vn -0.5001 -0.0001 -0.8660
vn -0.4998 0.0002 -0.8661
vn -0.4998 -0.0003 -0.8661
vn -0.5002 -0.0001 -0.8659
vn -0.5003 -0.0002 -0.8658
vn -0.4998 0.0001 -0.8661
vn -0.3683 0.9051 0.2126
vn 0.6124 0.7071 -0.3536
vn 0.6124 -0.7071 -0.3536
vn -0.6124 -0.7071 0.3536
vn -0.8660 -0.0011 0.5000
vn -0.8660 -0.0044 0.5000
vn -0.8660 -0.0093 0.5000
vn -0.8659 -0.0151 0.4999
vn -0.8658 -0.0219 0.4999
vn -0.8656 -0.0302 0.4998
vn -0.8653 -0.0403 0.4996
vn -0.8648 -0.0526 0.4993
vn -0.8640 -0.0687 0.4988
vn -0.8625 -0.0901 0.4980
vn -0.8598 -0.1198 0.4964
vn -0.8543 -0.1643 0.4932
vn -0.8430 -0.2291 0.4867
vn -0.8429 -0.2294 0.4867
vn -0.8250 -0.3041 0.4763
vn -0.8018 -0.3778 0.4630
vn -0.7729 -0.4512 0.4462
vn -0.7385 -0.5224 0.4263
vn -0.6994 -0.5897 0.4038
vn -0.6566 -0.6520 0.3791
vn -0.6567 -0.6519 0.3791
vn -0.6107 -0.7091 0.3526
vn -0.5635 -0.7594 0.3253
vn -0.5154 -0.8037 0.2975
vn -0.4676 -0.8417 0.2700
vn -0.4210 -0.8739 0.2431
vn -0.3665 -0.9061 0.2116
vn -0.3003 -0.9379 0.1734
vn -0.2389 -0.9612 0.1379
vn -0.1904 -0.9755 0.1099
vn -0.1514 -0.9846 0.0874
vn -0.1197 -0.9904 0.0691
vn -0.0935 -0.9942 0.0540
vn -0.0716 -0.9966 0.0413
vn -0.0529 -0.9981 0.0305
vn -0.0369 -0.9991 0.0213
vn -0.0230 -0.9996 0.0133
vn -0.0109 -0.9999 0.0063
vn -0.0026 -1.0000 0.0015
vn -0.6124 -0.7071 0.3535
vn -0.6798 0.6196 0.3925
vn -0.2209 0.9669 0.1275
vn -0.2613 0.9534 0.1508
vn -0.3033 0.9367 0.1751
vn -0.3466 0.9164 0.2001
vn -0.3909 0.8923 0.2257
vn -0.4358 0.8641 0.2516
vn -0.4807 0.8318 0.2776
vn -0.5250 0.7953 0.3031
vn -0.5682 0.7547 0.3280
vn -0.6095 0.7104 0.3519
vn -0.6483 0.6630 0.3743
vt 0.352747 0.981334
vt 0.348387 0.981334
vt 0.348303 0.981334
vt 0.348471 0.981334
vt 0.352663 0.981334
vt 0.352580 0.981334
vt 0.352496 0.981334
vt 0.352412 0.981334
vt 0.352328 0.981334
vt 0.352244 0.981334
vt 0.352160 0.981334
vt 0.352077 0.981334
vt 0.349813 0.981334
vt 0.351993 0.981334
vt 0.349980 0.981334
vt 0.349896 0.981334
vt 0.351909 0.981334
vt 0.350148 0.981334
vt 0.350064 0.981334
vt 0.351825 0.981334
vt 0.350316 0.981334
vt 0.350232 0.981334
vt 0.351741 0.981334
vt 0.351657 0.981334
vt 0.351573 0.981334
vt 0.351490 0.981334
vt 0.351406 0.981334
vt 0.351322 0.981334
vt 0.351238 0.981334
vt 0.351154 0.981334
vt 0.351070 0.981334
vt 0.350986 0.981334
vt 0.350903 0.981334
vt 0.350819 0.981334
vt 0.350735 0.981334
vt 0.350651 0.981334
vt 0.350567 0.981334
vt 0.350483 0.981334
vt 0.350399 0.981334
vt 0.349729 0.981334
vt 0.349645 0.981334
vt 0.349561 0.981334
vt 0.349477 0.981334
vt 0.349393 0.981334
vt 0.349309 0.981334
vt 0.349226 0.981334
vt 0.349142 0.981334
vt 0.349058 0.981334
vt 0.348974 0.981334
vt 0.348890 0.981334
vt 0.348806 0.981334
vt 0.348722 0.981334
vt 0.348639 0.981334
vt 0.348555 0.981334
vt 0.348303 0.985778
vt 0.348386 0.985778
vt 0.348386 0.981334
vt 0.348468 0.985778
vt 0.348468 0.981334
vt 0.348550 0.985778
vt 0.348550 0.981334
vt 0.348632 0.985778
vt 0.348632 0.981334
vt 0.348715 0.985778
vt 0.348715 0.981334
vt 0.348797 0.985778
vt 0.348797 0.981334
vt 0.348879 0.985778
vt 0.348879 0.981334
vt 0.348962 0.985778
vt 0.348962 0.981334
vt 0.349044 0.985778
vt 0.349044 0.981334
vt 0.349126 0.985778
vt 0.349126 0.981334
vt 0.349209 0.985778
vt 0.349209 0.981334
vt 0.349291 0.985778
vt 0.349291 0.981334
vt 0.349373 0.985778
vt 0.349373 0.981334
vt 0.349455 0.985778
vt 0.349455 0.981334
vt 0.349538 0.985778
vt 0.349538 0.981334
vt 0.349620 0.985778
vt 0.349620 0.981334
vt 0.349702 0.985778
vt 0.349702 0.981334
vt 0.349785 0.985778
vt 0.349785 0.981334
vt 0.349867 0.985778
vt 0.349867 0.981334
vt 0.349949 0.985778
vt 0.349949 0.981334
vt 0.350031 0.985778
vt 0.350031 0.981334
vt 0.350114 0.985778
vt 0.350114 0.981334
vt 0.350196 0.985778
vt 0.350196 0.981334
vt 0.350278 0.985778
vt 0.350278 0.981334
vt 0.350361 0.985778
vt 0.350361 0.981334
vt 0.350443 0.985778
vt 0.350443 0.981334
vt 0.350525 0.985778
vt 0.350525 0.981334
vt 0.350608 0.985778
vt 0.350608 0.981334
vt 0.350690 0.985778
vt 0.350690 0.981334
vt 0.350772 0.985778
vt 0.350772 0.981334
vt 0.350854 0.985778
vt 0.350854 0.981334
vt 0.350937 0.985778
vt 0.350937 0.981334
vt 0.351019 0.985778
vt 0.351019 0.981334
vt 0.351101 0.985778
vt 0.351101 0.981334
vt 0.351184 0.985778
vt 0.351184 0.981334
vt 0.351266 0.985778
vt 0.351266 0.981334
vt 0.351348 0.985778
vt 0.351348 0.981334
vt 0.351431 0.985778
vt 0.351431 0.981334
vt 0.351513 0.985778
vt 0.351513 0.981334
vt 0.351595 0.985778
vt 0.351595 0.981334
vt 0.351677 0.985778
vt 0.351677 0.981334
vt 0.351760 0.985778
vt 0.351760 0.981334
vt 0.351842 0.985778
vt 0.351842 0.981334
vt 0.351924 0.985778
vt 0.351924 0.981334
vt 0.352007 0.985778
vt 0.352007 0.981334
vt 0.352089 0.985778
vt 0.352089 0.981334
vt 0.352171 0.985778
vt 0.352171 0.981334
vt 0.352254 0.985778
vt 0.352254 0.981334
vt 0.352336 0.985778
vt 0.352336 0.981334
vt 0.352418 0.985778
vt 0.352418 0.981334
vt 0.352500 0.985778
vt 0.352500 0.981334
vt 0.352583 0.985778
vt 0.352583 0.981334
vt 0.352665 0.985778
vt 0.352665 0.981334
vt 0.352747 0.985778
s 0
usemtl Material.001
f 54/1/1 2/2/1 1/3/1
f 54/1/1 3/4/1 2/2/1
f 53/5/1 3/4/1 54/1/1
f 52/6/1 3/4/1 53/5/1
f 51/7/1 3/4/1 52/6/1
f 50/8/1 3/4/1 51/7/1
f 49/9/2 3/4/2 50/8/2
f 48/10/1 3/4/1 49/9/1
f 47/11/2 3/4/2 48/10/2
f 46/12/3 19/13/3 47/11/3
f 19/13/1 3/4/1 47/11/1
f 45/14/1 21/15/1 46/12/1
f 21/15/4 20/16/4 46/12/4
f 20/16/5 19/13/5 46/12/5
f 44/17/1 23/18/1 45/14/1
f 23/18/1 22/19/1 45/14/1
f 22/19/2 21/15/2 45/14/2
f 43/20/1 25/21/1 44/17/1
f 25/21/6 24/22/6 44/17/6
f 24/22/1 23/18/1 44/17/1
f 42/23/1 41/24/1 43/20/1
f 41/24/3 40/25/3 43/20/3
f 40/25/1 39/26/1 43/20/1
f 39/26/1 38/27/1 43/20/1
f 38/27/1 37/28/1 43/20/1
f 37/28/7 36/29/7 43/20/7
f 36/29/2 35/30/2 43/20/2
f 35/30/3 34/31/3 43/20/3
f 34/31/8 33/32/8 43/20/8
f 33/32/9 32/33/9 43/20/9
f 32/33/3 31/34/3 43/20/3
f 31/34/4 30/35/4 43/20/4
f 30/35/10 29/36/10 43/20/10
f 29/36/8 28/37/8 43/20/8
f 28/37/11 27/38/11 43/20/11
f 27/38/1 26/39/1 43/20/1
f 26/39/1 25/21/1 43/20/1
f 18/40/1 3/4/1 19/13/1
f 17/41/12 3/4/12 18/40/1
f 16/42/13 3/4/13 17/41/13
f 15/43/3 3/4/3 16/42/3
f 14/44/1 3/4/1 15/43/1
f 13/45/2 3/4/2 14/44/2
f 12/46/14 3/4/14 13/45/14
f 11/47/1 3/4/1 12/46/1
f 10/48/1 3/4/1 11/47/1
f 9/49/11 3/4/11 10/48/11
f 8/50/8 3/4/8 9/49/8
f 7/51/14 3/4/14 8/50/14
f 6/52/2 3/4/2 7/51/2
f 5/53/14 3/4/14 6/52/14
f 4/54/1 3/4/1 5/53/1
f 108/1/15 55/3/15 56/2/15
f 108/1/15 56/2/15 57/4/15
f 107/5/15 108/1/15 57/4/15
f 106/6/15 107/5/15 57/4/15
f 105/7/15 106/6/15 57/4/15
f 104/8/15 105/7/15 57/4/15
f 103/9/15 104/8/15 57/4/15
f 102/10/15 103/9/15 57/4/15
f 101/11/16 102/10/16 57/4/16
f 100/12/17 101/11/17 73/13/17
f 73/13/18 101/11/18 57/4/18
f 99/14/15 100/12/15 75/15/15
f 75/15/15 100/12/15 74/16/15
f 74/16/19 100/12/19 73/13/19
f 98/17/15 99/14/15 77/18/15
f 77/18/15 99/14/15 76/19/15
f 76/19/18 99/14/18 75/15/18
f 97/20/15 98/17/15 79/21/15
f 79/21/15 98/17/15 78/22/15
f 78/22/15 98/17/15 77/18/15
f 96/23/15 97/20/15 95/24/15
f 95/24/15 97/20/15 94/25/15
f 94/25/20 97/20/20 93/26/20
f 93/26/21 97/20/21 92/27/21
f 92/27/15 97/20/15 91/28/15
f 91/28/20 97/20/20 90/29/20
f 90/29/21 97/20/21 89/30/21
f 89/30/20 97/20/20 88/31/20
f 88/31/20 97/20/20 87/32/20
f 87/32/15 97/20/15 86/33/15
f 86/33/20 97/20/20 85/34/20
f 85/34/22 97/20/22 84/35/22
f 84/35/23 97/20/23 83/36/23
f 83/36/24 97/20/24 82/37/24
f 82/37/15 97/20/15 81/38/15
f 81/38/15 97/20/15 80/39/15
f 80/39/15 97/20/15 79/21/15
f 72/40/15 73/13/15 57/4/15
f 71/41/15 72/40/15 57/4/15
f 70/42/15 71/41/15 57/4/15
f 69/43/15 70/42/15 57/4/15
f 68/44/25 69/43/25 57/4/25
f 67/45/18 68/44/18 57/4/18
f 66/46/24 67/45/24 57/4/24
f 65/47/15 66/46/15 57/4/15
f 64/48/26 65/47/26 57/4/26
f 63/49/16 64/48/16 57/4/16
f 62/50/18 63/49/18 57/4/18
f 61/51/15 62/50/15 57/4/15
f 60/52/18 61/51/18 57/4/18
f 59/53/15 60/52/15 57/4/15
f 58/54/15 59/53/15 57/4/15
s 1
f 110/55/27 112/56/28 111/57/28 109/3/27
f 112/56/28 114/58/29 113/59/29 111/57/28
f 114/58/29 116/60/30 115/61/30 113/59/29
f 116/60/30 118/62/31 117/63/31 115/61/30
f 118/62/31 120/64/32 119/65/32 117/63/31
f 120/64/32 122/66/33 121/67/33 119/65/32
f 122/66/33 124/68/34 123/69/34 121/67/33
f 124/68/34 126/70/35 125/71/35 123/69/34
f 126/70/35 128/72/36 127/73/36 125/71/35
f 128/72/36 130/74/37 129/75/37 127/73/36
f 130/74/37 132/76/38 131/77/38 129/75/37
f 132/76/38 134/78/39 133/79/39 131/77/38
f 134/78/39 136/80/40 135/81/40 133/79/39
f 136/80/40 138/82/41 137/83/41 135/81/40
f 138/82/41 140/84/42 139/85/42 137/83/41
f 140/84/42 142/86/43 141/87/44 139/85/42
f 142/86/43 144/88/45 143/89/45 141/87/44
f 144/88/45 146/90/46 145/91/46 143/89/45
f 146/90/46 148/92/47 147/93/47 145/91/46
f 148/92/47 150/94/48 149/95/48 147/93/47
f 150/94/48 152/96/49 151/97/49 149/95/48
f 152/96/49 154/98/50 153/99/51 151/97/49
f 154/98/50 156/100/52 155/101/52 153/99/51
f 156/100/52 158/102/53 157/103/53 155/101/52
f 158/102/53 160/104/54 159/105/54 157/103/53
f 160/104/54 162/106/55 161/107/55 159/105/54
f 162/106/55 164/108/56 163/109/56 161/107/55
f 164/108/56 166/110/57 165/111/57 163/109/56
f 166/110/57 168/112/58 167/113/58 165/111/57
f 168/112/58 170/114/59 169/115/59 167/113/58
f 170/114/59 172/116/60 171/117/60 169/115/59
f 172/116/60 174/118/61 173/119/61 171/117/60
f 174/118/61 176/120/62 175/121/62 173/119/61
f 176/120/62 178/122/63 177/123/63 175/121/62
f 178/122/63 180/124/64 179/125/64 177/123/63
f 180/124/64 182/126/65 181/127/65 179/125/64
f 182/126/65 184/128/66 183/129/66 181/127/65
f 184/128/66 186/130/67 185/131/67 183/129/66
f 186/130/67 188/132/68 187/133/68 185/131/67
f 188/132/68 190/134/69 189/135/69 187/133/68
f 190/134/69 192/136/30 191/137/70 189/135/69
f 192/136/30 194/138/71 193/139/71 191/137/70
f 194/138/71 196/140/72 195/141/72 193/139/71
f 196/140/72 198/142/73 197/143/73 195/141/72
f 198/142/73 200/144/74 199/145/74 197/143/73
f 200/144/74 202/146/75 201/147/75 199/145/74
f 202/146/75 204/148/76 203/149/76 201/147/75
f 204/148/76 206/150/77 205/151/77 203/149/76
f 206/150/77 208/152/78 207/153/78 205/151/77
f 208/152/78 210/154/79 209/155/79 207/153/78
f 210/154/79 212/156/80 211/157/80 209/155/79
f 212/156/80 214/158/81 213/159/81 211/157/80
f 214/158/81 216/160/82 215/161/82 213/159/81
f 216/160/82 110/162/27 109/1/27 215/161/82
