# Blender 4.1.1
# www.blender.org
o Text.071
v 0.000377 0.254504 0.060000
v 0.077927 0.254504 0.060001
v 0.077927 -0.273030 0.060001
v -0.053710 -0.273030 0.060001
v -0.053710 0.009799 0.060001
v -0.053732 0.019669 0.060000
v -0.053793 0.028860 0.060001
v -0.053894 0.037373 0.060000
v -0.054037 0.045206 0.060001
v -0.054219 0.052361 0.060001
v -0.054446 0.058837 0.060000
v -0.054711 0.064634 0.060001
v -0.055015 0.069753 0.060001
v -0.055363 0.074192 0.060001
v -0.055749 0.077953 0.060001
v -0.056177 0.081035 0.060001
v -0.056645 0.083438 0.060001
v -0.057205 0.085460 0.060001
v -0.057907 0.087398 0.060001
v -0.058752 0.089252 0.060000
v -0.059740 0.091023 0.060000
v -0.060871 0.092710 0.060001
v -0.062143 0.094313 0.060001
v -0.063559 0.095832 0.060001
v -0.065117 0.097268 0.060001
v -0.066816 0.098620 0.060001
v -0.068659 0.099888 0.060001
v -0.070644 0.101073 0.060001
v -0.072773 0.102174 0.060001
v -0.075197 0.103189 0.060001
v -0.078071 0.104115 0.060001
v -0.081395 0.104954 0.060001
v -0.085170 0.105704 0.060001
v -0.089397 0.106366 0.060001
v -0.094074 0.106939 0.060000
v -0.099201 0.107425 0.060001
v -0.104778 0.107822 0.060000
v -0.110806 0.108131 0.060001
v -0.117283 0.108351 0.060001
v -0.124211 0.108484 0.060001
v -0.131588 0.108528 0.060000
v -0.144621 0.108528 0.060001
v -0.144621 0.170111 0.060001
v -0.129028 0.173834 0.060000
v -0.114075 0.178158 0.060001
v -0.099758 0.183084 0.060000
v -0.086080 0.188612 0.060001
v -0.073040 0.194742 0.060000
v -0.060639 0.201473 0.060001
v -0.048874 0.208807 0.060000
v -0.037748 0.216742 0.060001
v -0.027259 0.225280 0.060001
v -0.017410 0.234419 0.060000
v -0.008198 0.244161 0.060000
v 0.000378 0.254504 -0.060000
v 0.077927 0.254504 -0.059999
v 0.077927 -0.273030 -0.059999
v -0.053711 -0.273030 -0.059999
v -0.053711 0.009798 -0.059999
v -0.053732 0.019669 -0.060000
v -0.053794 0.028860 -0.059999
v -0.053894 0.037373 -0.059999
v -0.054037 0.045206 -0.059999
v -0.054219 0.052361 -0.059999
v -0.054445 0.058837 -0.059999
v -0.054711 0.064634 -0.059999
v -0.055015 0.069753 -0.059999
v -0.055363 0.074192 -0.059999
v -0.055750 0.077953 -0.059999
v -0.056177 0.081035 -0.059999
v -0.056645 0.083438 -0.059999
v -0.057206 0.085460 -0.059999
v -0.057908 0.087398 -0.059999
v -0.058752 0.089252 -0.059999
v -0.059740 0.091023 -0.060000
v -0.060871 0.092710 -0.059999
v -0.062143 0.094313 -0.059999
v -0.063559 0.095832 -0.059999
v -0.065117 0.097268 -0.059999
v -0.066816 0.098620 -0.060000
v -0.068659 0.099888 -0.059999
v -0.070644 0.101073 -0.060000
v -0.072773 0.102174 -0.059999
v -0.075197 0.103189 -0.059999
v -0.078072 0.104115 -0.060000
v -0.081396 0.104954 -0.060000
v -0.085170 0.105704 -0.059999
v -0.089398 0.106366 -0.059999
v -0.094074 0.106939 -0.060000
v -0.099201 0.107425 -0.059999
v -0.104778 0.107822 -0.060000
v -0.110806 0.108131 -0.059999
v -0.117283 0.108351 -0.059999
v -0.124210 0.108484 -0.060000
v -0.131588 0.108528 -0.060000
v -0.144621 0.108528 -0.059999
v -0.144621 0.170111 -0.059999
v -0.129028 0.173833 -0.060000
v -0.114075 0.178158 -0.059999
v -0.099757 0.183084 -0.059999
v -0.086080 0.188612 -0.059999
v -0.073040 0.194742 -0.060000
v -0.060638 0.201473 -0.060000
v -0.048874 0.208807 -0.060000
v -0.037749 0.216742 -0.060000
v -0.027260 0.225280 -0.059999
v -0.017410 0.234419 -0.060000
v -0.008198 0.244161 -0.059999
v 0.000378 0.254504 -0.060000
v 0.000377 0.254504 0.060000
v 0.077927 0.254504 -0.059999
v 0.077927 0.254504 0.060001
v 0.077927 -0.273030 -0.059999
v 0.077927 -0.273030 0.060001
v -0.053711 -0.273030 -0.059999
v -0.053710 -0.273030 0.060001
v -0.053711 0.009798 -0.059999
v -0.053710 0.009799 0.060001
v -0.053732 0.019669 -0.060000
v -0.053732 0.019669 0.060000
v -0.053794 0.028860 -0.059999
v -0.053793 0.028860 0.060001
v -0.053894 0.037373 -0.059999
v -0.053894 0.037373 0.060000
v -0.054037 0.045206 -0.059999
v -0.054037 0.045206 0.060001
v -0.054219 0.052361 -0.059999
v -0.054219 0.052361 0.060001
v -0.054445 0.058837 -0.059999
v -0.054446 0.058837 0.060000
v -0.054711 0.064634 -0.059999
v -0.054711 0.064634 0.060001
v -0.055015 0.069753 -0.059999
v -0.055015 0.069753 0.060001
v -0.055363 0.074192 -0.059999
v -0.055363 0.074192 0.060001
v -0.055750 0.077953 -0.059999
v -0.055749 0.077953 0.060001
v -0.056177 0.081035 -0.059999
v -0.056177 0.081035 0.060001
v -0.056645 0.083438 -0.059999
v -0.056645 0.083438 0.060001
v -0.057206 0.085460 -0.059999
v -0.057205 0.085460 0.060001
v -0.057908 0.087398 -0.059999
v -0.057907 0.087398 0.060001
v -0.058752 0.089252 -0.059999
v -0.058752 0.089252 0.060000
v -0.059740 0.091023 -0.060000
v -0.059740 0.091023 0.060000
v -0.060871 0.092710 -0.059999
v -0.060871 0.092710 0.060001
v -0.062143 0.094313 -0.059999
v -0.062143 0.094313 0.060001
v -0.063559 0.095832 -0.059999
v -0.063559 0.095832 0.060001
v -0.065117 0.097268 -0.059999
v -0.065117 0.097268 0.060001
v -0.066816 0.098620 -0.060000
v -0.066816 0.098620 0.060001
v -0.068659 0.099888 -0.059999
v -0.068659 0.099888 0.060001
v -0.070644 0.101073 -0.060000
v -0.070644 0.101073 0.060001
v -0.072773 0.102174 -0.059999
v -0.072773 0.102174 0.060001
v -0.075197 0.103189 -0.059999
v -0.075197 0.103189 0.060001
v -0.078072 0.104115 -0.060000
v -0.078071 0.104115 0.060001
v -0.081396 0.104954 -0.060000
v -0.081395 0.104954 0.060001
v -0.085170 0.105704 -0.059999
v -0.085170 0.105704 0.060001
v -0.089398 0.106366 -0.059999
v -0.089397 0.106366 0.060001
v -0.094074 0.106939 -0.060000
v -0.094074 0.106939 0.060000
v -0.099201 0.107425 -0.059999
v -0.099201 0.107425 0.060001
v -0.104778 0.107822 -0.060000
v -0.104778 0.107822 0.060000
v -0.110806 0.108131 -0.059999
v -0.110806 0.108131 0.060001
v -0.117283 0.108351 -0.059999
v -0.117283 0.108351 0.060001
v -0.124210 0.108484 -0.060000
v -0.124211 0.108484 0.060001
v -0.131588 0.108528 -0.060000
v -0.131588 0.108528 0.060000
v -0.144621 0.108528 -0.059999
v -0.144621 0.108528 0.060001
v -0.144621 0.170111 -0.059999
v -0.144621 0.170111 0.060001
v -0.129028 0.173833 -0.060000
v -0.129028 0.173834 0.060000
v -0.114075 0.178158 -0.059999
v -0.114075 0.178158 0.060001
v -0.099757 0.183084 -0.059999
v -0.099758 0.183084 0.060000
v -0.086080 0.188612 -0.059999
v -0.086080 0.188612 0.060001
v -0.073040 0.194742 -0.060000
v -0.073040 0.194742 0.060000
v -0.060638 0.201473 -0.060000
v -0.060639 0.201473 0.060001
v -0.048874 0.208807 -0.060000
v -0.048874 0.208807 0.060000
v -0.037749 0.216742 -0.060000
v -0.037748 0.216742 0.060001
v -0.027260 0.225280 -0.059999
v -0.027259 0.225280 0.060001
v -0.017410 0.234419 -0.060000
v -0.017410 0.234419 0.060000
v -0.008198 0.244161 -0.059999
v -0.008198 0.244161 0.060000
vn -0.0000 -0.0000 1.0000
vn 0.0001 -0.0000 1.0000
vn -0.0001 -0.0000 1.0000
vn -0.0000 -0.0001 1.0000
vn 0.0002 -0.0000 1.0000
vn 0.0003 -0.0000 1.0000
vn 0.0002 0.0001 1.0000
vn -0.0001 -0.0001 1.0000
vn 0.0001 0.0002 1.0000
vn -0.0002 0.0002 1.0000
vn 0.0001 0.0001 1.0000
vn -0.0003 -0.0000 1.0000
vn -0.0000 -0.0000 -1.0000
vn -0.0001 -0.0000 -1.0000
vn 0.0001 -0.0000 -1.0000
vn 0.0002 -0.0000 -1.0000
vn 0.0002 0.0001 -1.0000
vn -0.0001 -0.0001 -1.0000
vn 0.0001 0.0001 -1.0000
vn 0.0002 0.0002 -1.0000
vn 0.0002 -0.0003 -1.0000
vn -0.0002 -0.0001 -1.0000
vn -0.0004 -0.0002 -1.0000
vn -0.4253 0.9051 -0.0000
vn 0.7071 0.7071 -0.0000
vn 0.7071 -0.7071 -0.0000
vn -0.7071 -0.7071 -0.0000
vn -1.0000 -0.0011 -0.0000
vn -1.0000 -0.0044 -0.0000
vn -1.0000 -0.0093 -0.0000
vn -0.9999 -0.0151 -0.0000
vn -0.9998 -0.0219 -0.0000
vn -0.9995 -0.0302 -0.0000
vn -0.9992 -0.0403 -0.0000
vn -0.9986 -0.0526 -0.0000
vn -0.9976 -0.0687 -0.0000
vn -0.9959 -0.0901 -0.0000
vn -0.9928 -0.1198 -0.0000
vn -0.9864 -0.1643 -0.0000
vn -0.9734 -0.2291 -0.0000
vn -0.9733 -0.2294 -0.0000
vn -0.9526 -0.3041 -0.0000
vn -0.9259 -0.3778 -0.0000
vn -0.8924 -0.4512 -0.0000
vn -0.8527 -0.5224 -0.0000
vn -0.8076 -0.5897 -0.0000
vn -0.7582 -0.6520 -0.0000
vn -0.7583 -0.6519 -0.0000
vn -0.7051 -0.7091 -0.0000
vn -0.6506 -0.7594 -0.0000
vn -0.5951 -0.8037 -0.0000
vn -0.5400 -0.8417 -0.0000
vn -0.4862 -0.8739 -0.0000
vn -0.4232 -0.9061 -0.0000
vn -0.3468 -0.9379 -0.0000
vn -0.2758 -0.9612 -0.0000
vn -0.2198 -0.9755 -0.0000
vn -0.1748 -0.9846 -0.0000
vn -0.1382 -0.9904 -0.0000
vn -0.1080 -0.9942 -0.0000
vn -0.0827 -0.9966 -0.0000
vn -0.0611 -0.9981 -0.0000
vn -0.0426 -0.9991 -0.0000
vn -0.0266 -0.9996 -0.0000
vn -0.0126 -0.9999 -0.0000
vn -0.0030 -1.0000 -0.0000
vn -0.7849 0.6196 -0.0000
vn -0.2551 0.9669 -0.0000
vn -0.3017 0.9534 -0.0000
vn -0.3502 0.9367 -0.0000
vn -0.4002 0.9164 -0.0000
vn -0.4514 0.8923 -0.0000
vn -0.5033 0.8641 -0.0000
vn -0.5551 0.8318 -0.0000
vn -0.6063 0.7953 -0.0000
vn -0.6561 0.7547 -0.0000
vn -0.7038 0.7104 -0.0000
vn -0.7486 0.6630 -0.0000
vt 0.352747 0.981334
vt 0.348387 0.981334
vt 0.348303 0.981334
vt 0.348471 0.981334
vt 0.352663 0.981334
vt 0.352580 0.981334
vt 0.352496 0.981334
vt 0.352412 0.981334
vt 0.352328 0.981334
vt 0.352244 0.981334
vt 0.352160 0.981334
vt 0.352077 0.981334
vt 0.349813 0.981334
vt 0.351993 0.981334
vt 0.349980 0.981334
vt 0.349896 0.981334
vt 0.351909 0.981334
vt 0.350148 0.981334
vt 0.350064 0.981334
vt 0.351825 0.981334
vt 0.350316 0.981334
vt 0.350232 0.981334
vt 0.351741 0.981334
vt 0.351657 0.981334
vt 0.351573 0.981334
vt 0.351490 0.981334
vt 0.351406 0.981334
vt 0.351322 0.981334
vt 0.351238 0.981334
vt 0.351154 0.981334
vt 0.351070 0.981334
vt 0.350986 0.981334
vt 0.350903 0.981334
vt 0.350819 0.981334
vt 0.350735 0.981334
vt 0.350651 0.981334
vt 0.350567 0.981334
vt 0.350483 0.981334
vt 0.350399 0.981334
vt 0.349729 0.981334
vt 0.349645 0.981334
vt 0.349561 0.981334
vt 0.349477 0.981334
vt 0.349393 0.981334
vt 0.349309 0.981334
vt 0.349226 0.981334
vt 0.349142 0.981334
vt 0.349058 0.981334
vt 0.348974 0.981334
vt 0.348890 0.981334
vt 0.348806 0.981334
vt 0.348722 0.981334
vt 0.348639 0.981334
vt 0.348555 0.981334
vt 0.348303 0.985778
vt 0.348386 0.985778
vt 0.348386 0.981334
vt 0.348468 0.985778
vt 0.348468 0.981334
vt 0.348550 0.985778
vt 0.348550 0.981334
vt 0.348632 0.985778
vt 0.348632 0.981334
vt 0.348715 0.985778
vt 0.348715 0.981334
vt 0.348797 0.985778
vt 0.348797 0.981334
vt 0.348879 0.985778
vt 0.348879 0.981334
vt 0.348962 0.985778
vt 0.348962 0.981334
vt 0.349044 0.985778
vt 0.349044 0.981334
vt 0.349126 0.985778
vt 0.349126 0.981334
vt 0.349209 0.985778
vt 0.349209 0.981334
vt 0.349291 0.985778
vt 0.349291 0.981334
vt 0.349373 0.985778
vt 0.349373 0.981334
vt 0.349455 0.985778
vt 0.349455 0.981334
vt 0.349538 0.985778
vt 0.349538 0.981334
vt 0.349620 0.985778
vt 0.349620 0.981334
vt 0.349702 0.985778
vt 0.349702 0.981334
vt 0.349785 0.985778
vt 0.349785 0.981334
vt 0.349867 0.985778
vt 0.349867 0.981334
vt 0.349949 0.985778
vt 0.349949 0.981334
vt 0.350031 0.985778
vt 0.350031 0.981334
vt 0.350114 0.985778
vt 0.350114 0.981334
vt 0.350196 0.985778
vt 0.350196 0.981334
vt 0.350278 0.985778
vt 0.350278 0.981334
vt 0.350361 0.985778
vt 0.350361 0.981334
vt 0.350443 0.985778
vt 0.350443 0.981334
vt 0.350525 0.985778
vt 0.350525 0.981334
vt 0.350608 0.985778
vt 0.350608 0.981334
vt 0.350690 0.985778
vt 0.350690 0.981334
vt 0.350772 0.985778
vt 0.350772 0.981334
vt 0.350854 0.985778
vt 0.350854 0.981334
vt 0.350937 0.985778
vt 0.350937 0.981334
vt 0.351019 0.985778
vt 0.351019 0.981334
vt 0.351101 0.985778
vt 0.351101 0.981334
vt 0.351184 0.985778
vt 0.351184 0.981334
vt 0.351266 0.985778
vt 0.351266 0.981334
vt 0.351348 0.985778
vt 0.351348 0.981334
vt 0.351431 0.985778
vt 0.351431 0.981334
vt 0.351513 0.985778
vt 0.351513 0.981334
vt 0.351595 0.985778
vt 0.351595 0.981334
vt 0.351677 0.985778
vt 0.351677 0.981334
vt 0.351760 0.985778
vt 0.351760 0.981334
vt 0.351842 0.985778
vt 0.351842 0.981334
vt 0.351924 0.985778
vt 0.351924 0.981334
vt 0.352007 0.985778
vt 0.352007 0.981334
vt 0.352089 0.985778
vt 0.352089 0.981334
vt 0.352171 0.985778
vt 0.352171 0.981334
vt 0.352254 0.985778
vt 0.352254 0.981334
vt 0.352336 0.985778
vt 0.352336 0.981334
vt 0.352418 0.985778
vt 0.352418 0.981334
vt 0.352500 0.985778
vt 0.352500 0.981334
vt 0.352583 0.985778
vt 0.352583 0.981334
vt 0.352665 0.985778
vt 0.352665 0.981334
vt 0.352747 0.985778
s 0
f 54/1/1 2/2/1 1/3/1
f 54/1/1 3/4/1 2/2/1
f 53/5/1 3/4/1 54/1/1
f 52/6/1 3/4/1 53/5/1
f 51/7/1 3/4/1 52/6/1
f 50/8/1 3/4/1 51/7/1
f 49/9/2 3/4/2 50/8/2
f 48/10/1 3/4/1 49/9/1
f 47/11/2 3/4/2 48/10/2
f 46/12/3 19/13/3 47/11/3
f 19/13/1 3/4/1 47/11/1
f 45/14/2 21/15/2 46/12/2
f 21/15/4 20/16/4 46/12/4
f 20/16/5 19/13/6 46/12/5
f 44/17/1 23/18/1 45/14/1
f 23/18/1 22/19/1 45/14/1
f 22/19/2 21/15/2 45/14/2
f 43/20/1 25/21/1 44/17/1
f 25/21/6 24/22/6 44/17/6
f 24/22/1 23/18/1 44/17/1
f 42/23/1 41/24/1 43/20/1
f 41/24/3 40/25/3 43/20/3
f 40/25/2 39/26/2 43/20/2
f 39/26/1 38/27/1 43/20/1
f 38/27/1 37/28/1 43/20/1
f 37/28/7 36/29/7 43/20/7
f 36/29/2 35/30/2 43/20/2
f 35/30/3 34/31/3 43/20/3
f 34/31/8 33/32/8 43/20/8
f 33/32/9 32/33/9 43/20/9
f 32/33/3 31/34/3 43/20/3
f 31/34/4 30/35/4 43/20/4
f 30/35/10 29/36/10 43/20/10
f 29/36/8 28/37/8 43/20/8
f 28/37/11 27/38/11 43/20/11
f 27/38/1 26/39/1 43/20/1
f 26/39/1 25/21/1 43/20/1
f 18/40/1 3/4/1 19/13/1
f 17/41/1 3/4/3 18/40/1
f 16/42/12 3/4/12 17/41/12
f 15/43/3 3/4/3 16/42/3
f 14/44/1 3/4/1 15/43/1
f 13/45/2 3/4/2 14/44/2
f 12/46/7 3/4/7 13/45/7
f 11/47/1 3/4/1 12/46/1
f 10/48/1 3/4/1 11/47/1
f 9/49/11 3/4/11 10/48/11
f 8/50/8 3/4/8 9/49/8
f 7/51/7 3/4/7 8/50/7
f 6/52/2 3/4/2 7/51/2
f 5/53/7 3/4/7 6/52/7
f 4/54/1 3/4/1 5/53/1
f 108/1/13 55/3/13 56/2/13
f 108/1/13 56/2/13 57/4/13
f 107/5/13 108/1/13 57/4/13
f 106/6/13 107/5/13 57/4/13
f 105/7/13 106/6/13 57/4/13
f 104/8/13 105/7/13 57/4/13
f 103/9/13 104/8/13 57/4/13
f 102/10/13 103/9/13 57/4/13
f 101/11/14 102/10/14 57/4/14
f 100/12/13 101/11/13 73/13/13
f 73/13/15 101/11/15 57/4/15
f 99/14/13 100/12/13 75/15/13
f 75/15/13 100/12/13 74/16/13
f 74/16/16 100/12/16 73/13/16
f 98/17/13 99/14/13 77/18/13
f 77/18/13 99/14/13 76/19/13
f 76/19/15 99/14/15 75/15/15
f 97/20/13 98/17/13 79/21/13
f 79/21/13 98/17/13 78/22/13
f 78/22/13 98/17/13 77/18/13
f 96/23/13 97/20/13 95/24/13
f 95/24/14 97/20/14 94/25/14
f 94/25/17 97/20/17 93/26/17
f 93/26/18 97/20/18 92/27/18
f 92/27/13 97/20/13 91/28/13
f 91/28/19 97/20/19 90/29/19
f 90/29/18 97/20/18 89/30/18
f 89/30/19 97/20/19 88/31/19
f 88/31/19 97/20/19 87/32/19
f 87/32/13 97/20/13 86/33/13
f 86/33/19 97/20/19 85/34/19
f 85/34/20 97/20/20 84/35/20
f 84/35/21 97/20/21 83/36/21
f 83/36/22 97/20/22 82/37/22
f 82/37/13 97/20/13 81/38/13
f 81/38/13 97/20/13 80/39/13
f 80/39/13 97/20/13 79/21/13
f 72/40/13 73/13/13 57/4/13
f 71/41/13 72/40/13 57/4/13
f 70/42/13 71/41/13 57/4/13
f 69/43/13 70/42/13 57/4/13
f 68/44/23 69/43/23 57/4/23
f 67/45/15 68/44/15 57/4/15
f 66/46/22 67/45/22 57/4/22
f 65/47/13 66/46/13 57/4/13
f 64/48/17 65/47/17 57/4/17
f 63/49/14 64/48/14 57/4/14
f 62/50/15 63/49/15 57/4/15
f 61/51/13 62/50/13 57/4/13
f 60/52/15 61/51/15 57/4/15
f 59/53/14 60/52/14 57/4/14
f 58/54/13 59/53/13 57/4/13
s 1
f 110/55/24 112/56/25 111/57/25 109/3/24
f 112/56/25 114/58/26 113/59/26 111/57/25
f 114/58/26 116/60/27 115/61/27 113/59/26
f 116/60/27 118/62/28 117/63/28 115/61/27
f 118/62/28 120/64/29 119/65/29 117/63/28
f 120/64/29 122/66/30 121/67/30 119/65/29
f 122/66/30 124/68/31 123/69/31 121/67/30
f 124/68/31 126/70/32 125/71/32 123/69/31
f 126/70/32 128/72/33 127/73/33 125/71/32
f 128/72/33 130/74/34 129/75/34 127/73/33
f 130/74/34 132/76/35 131/77/35 129/75/34
f 132/76/35 134/78/36 133/79/36 131/77/35
f 134/78/36 136/80/37 135/81/37 133/79/36
f 136/80/37 138/82/38 137/83/38 135/81/37
f 138/82/38 140/84/39 139/85/39 137/83/38
f 140/84/39 142/86/40 141/87/41 139/85/39
f 142/86/40 144/88/42 143/89/42 141/87/41
f 144/88/42 146/90/43 145/91/43 143/89/42
f 146/90/43 148/92/44 147/93/44 145/91/43
f 148/92/44 150/94/45 149/95/45 147/93/44
f 150/94/45 152/96/46 151/97/46 149/95/45
f 152/96/46 154/98/47 153/99/48 151/97/46
f 154/98/47 156/100/49 155/101/49 153/99/48
f 156/100/49 158/102/50 157/103/50 155/101/49
f 158/102/50 160/104/51 159/105/51 157/103/50
f 160/104/51 162/106/52 161/107/52 159/105/51
f 162/106/52 164/108/53 163/109/53 161/107/52
f 164/108/53 166/110/54 165/111/54 163/109/53
f 166/110/54 168/112/55 167/113/55 165/111/54
f 168/112/55 170/114/56 169/115/56 167/113/55
f 170/114/56 172/116/57 171/117/57 169/115/56
f 172/116/57 174/118/58 173/119/58 171/117/57
f 174/118/58 176/120/59 175/121/59 173/119/58
f 176/120/59 178/122/60 177/123/60 175/121/59
f 178/122/60 180/124/61 179/125/61 177/123/60
f 180/124/61 182/126/62 181/127/62 179/125/61
f 182/126/62 184/128/63 183/129/63 181/127/62
f 184/128/63 186/130/64 185/131/64 183/129/63
f 186/130/64 188/132/65 187/133/65 185/131/64
f 188/132/65 190/134/66 189/135/66 187/133/65
f 190/134/66 192/136/27 191/137/27 189/135/66
f 192/136/27 194/138/67 193/139/67 191/137/27
f 194/138/67 196/140/68 195/141/68 193/139/67
f 196/140/68 198/142/69 197/143/69 195/141/68
f 198/142/69 200/144/70 199/145/70 197/143/69
f 200/144/70 202/146/71 201/147/71 199/145/70
f 202/146/71 204/148/72 203/149/72 201/147/71
f 204/148/72 206/150/73 205/151/73 203/149/72
f 206/150/73 208/152/74 207/153/74 205/151/73
f 208/152/74 210/154/75 209/155/75 207/153/74
f 210/154/75 212/156/76 211/157/76 209/155/75
f 212/156/76 214/158/77 213/159/77 211/157/76
f 214/158/77 216/160/78 215/161/78 213/159/77
f 216/160/78 110/162/24 109/1/24 215/161/78
