o Text.029
usemtl Material.001
v 0.1036770457408478 -0.2637670048065186 -0.04853608243264995
v -0.03350150266933394 0.26376604954528804 -0.048535239741438474
v 0.1036770457408478 0.26376604954528804 -0.04853608243264995
v 0.1036770457408478 -0.2637670048065186 -0.04853608243264995
v -0.03350150266933394 -0.15819501956176762 -0.048535239741438474
v -0.03350150266933394 0.26376604954528804 -0.048535239741438474
v 0.1036770457408478 -0.2637670048065186 -0.04853608243264995
v -0.1169161572015307 -0.15819501956176762 -0.0485356179084655
v -0.03350150266933394 -0.15819501956176762 -0.048535239741438474
v 0.1036770457408478 -0.2637670048065186 -0.04853608243264995
v -0.1169161572015307 -0.2637670048065186 -0.0485356179084655
v -0.1169161572015307 -0.15819501956176762 -0.0485356179084655
v 0.10367701881891023 -0.2637670048065186 0.07146384975659581
v 0.10367651869868766 0.26376604954528804 0.0714647159902313
v -0.033501526331642495 0.26376604954528804 0.07146468680196438
v 0.10367701881891023 -0.2637670048065186 0.07146384975659581
v -0.033501526331642495 0.26376604954528804 0.07146468680196438
v -0.033501526331642495 -0.15819501956176762 0.07146468680196438
v 0.10367701881891023 -0.2637670048065186 0.07146384975659581
v -0.033501526331642495 -0.15819501956176762 0.07146468680196438
v -0.11691618179516183 -0.15819501956176762 0.07146431024803546
v 0.10367701881891023 -0.2637670048065186 0.07146384975659581
v -0.11691618179516183 -0.15819501956176762 0.07146431024803546
v -0.11691618179516183 -0.2637670048065186 0.07146431024803546
v 0.1036770457408478 0.26376604954528804 -0.04853608243264995
v -0.03350150266933394 0.26376604954528804 -0.048535239741438474
v -0.033501526331642495 0.26376604954528804 0.07146468680196438
v 0.1036770457408478 0.26376604954528804 -0.04853608243264995
v -0.033501526331642495 0.26376604954528804 0.07146468680196438
v 0.10367651869868766 0.26376604954528804 0.0714647159902313
v -0.03350150266933394 0.26376604954528804 -0.048535239741438474
v -0.03350150266933394 -0.15819501956176762 -0.048535239741438474
v -0.033501526331642495 -0.15819501956176762 0.07146468680196438
v -0.03350150266933394 0.26376604954528804 -0.048535239741438474
v -0.033501526331642495 -0.15819501956176762 0.07146468680196438
v -0.033501526331642495 0.26376604954528804 0.07146468680196438
v -0.03350150266933394 -0.15819501956176762 -0.048535239741438474
v -0.1169161572015307 -0.15819501956176762 -0.0485356179084655
v -0.11691618179516183 -0.15819501956176762 0.07146431024803546
v -0.03350150266933394 -0.15819501956176762 -0.048535239741438474
v -0.11691618179516183 -0.15819501956176762 0.07146431024803546
v -0.033501526331642495 -0.15819501956176762 0.07146468680196438
v -0.1169161572015307 -0.15819501956176762 -0.0485356179084655
v -0.1169161572015307 -0.2637670048065186 -0.0485356179084655
v -0.11691618179516183 -0.2637670048065186 0.07146431024803546
v -0.1169161572015307 -0.15819501956176762 -0.0485356179084655
v -0.11691618179516183 -0.2637670048065186 0.07146431024803546
v -0.11691618179516183 -0.15819501956176762 0.07146431024803546
v -0.1169161572015307 -0.2637670048065186 -0.0485356179084655
v 0.1036770457408478 -0.2637670048065186 -0.04853608243264995
v 0.10367701881891023 -0.2637670048065186 0.07146384975659581
v -0.1169161572015307 -0.2637670048065186 -0.0485356179084655
v 0.10367701881891023 -0.2637670048065186 0.07146384975659581
v -0.11691618179516183 -0.2637670048065186 0.07146431024803546
v 0.1036770457408478 -0.2637670048065186 -0.04853608243264995
v 0.1036770457408478 0.26376604954528804 -0.04853608243264995
v 0.10367651869868766 0.26376604954528804 0.0714647159902313
v 0.1036770457408478 -0.2637670048065186 -0.04853608243264995
v 0.10367651869868766 0.26376604954528804 0.0714647159902313
v 0.10367701881891023 -0.2637670048065186 0.07146384975659581
vt 0.21593600511550903 0.47290000319480896
vt 0.2099830061197281 0.47290000319480896
vt 0.20849500596523285 0.47290000319480896
vt 0.21593600511550903 0.47290000319480896
vt 0.21147100627422333 0.47290000319480896
vt 0.2099830061197281 0.47290000319480896
vt 0.21593600511550903 0.47290000319480896
vt 0.21295900642871857 0.47290000319480896
vt 0.21147100627422333 0.47290000319480896
vt 0.21593600511550903 0.47290000319480896
vt 0.2144480049610138 0.47290000319480896
vt 0.21295900642871857 0.47290000319480896
vt 0.21593600511550903 0.47290000319480896
vt 0.20849500596523285 0.47290000319480896
vt 0.2099830061197281 0.47290000319480896
vt 0.21593600511550903 0.47290000319480896
vt 0.2099830061197281 0.47290000319480896
vt 0.21147100627422333 0.47290000319480896
vt 0.21593600511550903 0.47290000319480896
vt 0.21147100627422333 0.47290000319480896
vt 0.21295900642871857 0.47290000319480896
vt 0.21593600511550903 0.47290000319480896
vt 0.21295900642871857 0.47290000319480896
vt 0.2144480049610138 0.47290000319480896
vt 0.20849500596523285 0.48034098744392395
vt 0.20973500609397888 0.48034098744392395
vt 0.20973500609397888 0.47290000319480896
vt 0.20849500596523285 0.48034098744392395
vt 0.20973500609397888 0.47290000319480896
vt 0.20849500596523285 0.47290000319480896
vt 0.20973500609397888 0.48034098744392395
vt 0.21097500622272491 0.48034098744392395
vt 0.21097500622272491 0.47290000319480896
vt 0.20973500609397888 0.48034098744392395
vt 0.21097500622272491 0.47290000319480896
vt 0.20973500609397888 0.47290000319480896
vt 0.21097500622272491 0.48034098744392395
vt 0.21221500635147095 0.48034098744392395
vt 0.21221500635147095 0.47290000319480896
vt 0.21097500622272491 0.48034098744392395
vt 0.21221500635147095 0.47290000319480896
vt 0.21097500622272491 0.47290000319480896
vt 0.21221500635147095 0.48034098744392395
vt 0.21345500648021698 0.48034098744392395
vt 0.21345500648021698 0.47290000319480896
vt 0.21221500635147095 0.48034098744392395
vt 0.21345500648021698 0.47290000319480896
vt 0.21221500635147095 0.47290000319480896
vt 0.21345500648021698 0.48034098744392395
vt 0.214696004986763 0.48034098744392395
vt 0.214696004986763 0.47290000319480896
vt 0.21345500648021698 0.48034098744392395
vt 0.214696004986763 0.47290000319480896
vt 0.21345500648021698 0.47290000319480896
vt 0.214696004986763 0.48034098744392395
vt 0.21593600511550903 0.48034098744392395
vt 0.21593600511550903 0.47290000319480896
vt 0.214696004986763 0.48034098744392395
vt 0.21593600511550903 0.47290000319480896
vt 0.214696004986763 0.47290000319480896
vn -0.000012703840673810123 0 -0.9999999999193062
vn -0.000012703840673810123 0 -0.9999999999193062
vn -0.000012703840673810123 0 -0.9999999999193062
vn -0.000012703840673810123 0 -0.9999999999193062
vn -0.000012703840673810123 0 -0.9999999999193062
vn -0.000012703840673810123 0 -0.9999999999193062
vn -0.000012703840673810123 0 -0.9999999999193062
vn -0.000012703840673810123 0 -0.9999999999193062
vn -0.000012703840673810123 0 -0.9999999999193062
vn -0.000012703840673810123 0 -0.9999999999193062
vn -0.000012703840673810123 0 -0.9999999999193062
vn -0.000012703840673810123 0 -0.9999999999193062
vn 0.000012703840673810123 0 0.9999999999193062
vn 0.000012703840673810123 0 0.9999999999193062
vn 0.000012703840673810123 0 0.9999999999193062
vn 0.000012703840673810123 0 0.9999999999193062
vn 0.000012703840673810123 0 0.9999999999193062
vn 0.000012703840673810123 0 0.9999999999193062
vn 0.000012703840673810123 0 0.9999999999193062
vn 0.000012703840673810123 0 0.9999999999193062
vn 0.000012703840673810123 0 0.9999999999193062
vn 0.000012703840673810123 0 0.9999999999193062
vn 0.000012703840673810123 0 0.9999999999193062
vn 0.000012703840673810123 0 0.9999999999193062
vn 0.7071337680327552 0.7070797928107427 -0.00002658035038310029
vn -0.7071337680327552 0.7070797928107427 0.00002658035038310029
vn -0.7071337680327552 0.7070797928107427 0.00002658035038310029
vn 0.7071337680327552 0.7070797928107427 -0.00002658035038310029
vn -0.7071337680327552 0.7070797928107427 0.00002658035038310029
vn 0.7071337680327552 0.7070797928107427 -0.00002658035038310029
vn -0.7071337680327552 0.7070797928107427 0.00002658035038310029
vn -0.7071337680327552 0.7070797928107427 0.00002658035038310029
vn -0.7071337680327552 0.7070797928107427 0.00002658035038310029
vn -0.7071337680327552 0.7070797928107427 0.00002658035038310029
vn -0.7071337680327552 0.7070797928107427 0.00002658035038310029
vn -0.7071337680327552 0.7070797928107427 0.00002658035038310029
vn -0.7071337680327552 0.7070797928107427 0.00002658035038310029
vn -0.7071337680327552 0.7070797928107427 0.00002658035038310029
vn -0.7071337680327552 0.7070797928107427 0.00002658035038310029
vn -0.7071337680327552 0.7070797928107427 0.00002658035038310029
vn -0.7071337680327552 0.7070797928107427 0.00002658035038310029
vn -0.7071337680327552 0.7070797928107427 0.00002658035038310029
vn -0.7071337680327552 0.7070797928107427 0.00002658035038310029
vn -0.7071337680327552 -0.7070797928107427 0.00002658035038310029
vn -0.7071337680327552 -0.7070797928107427 0.00002658035038310029
vn -0.7071337680327552 0.7070797928107427 0.00002658035038310029
vn -0.7071337680327552 -0.7070797928107427 0.00002658035038310029
vn -0.7071337680327552 0.7070797928107427 0.00002658035038310029
vn -0.7071337680327552 -0.7070797928107427 0.00002658035038310029
vn 0.7071337680327552 -0.7070797928107427 -0.00002658035038310029
vn 0.7071337680327552 -0.7070797928107427 -0.00002658035038310029
vn -0.7071337680327552 -0.7070797928107427 0.00002658035038310029
vn 0.7071337680327552 -0.7070797928107427 -0.00002658035038310029
vn -0.7071337680327552 -0.7070797928107427 0.00002658035038310029
vn 0.7071337680327552 -0.7070797928107427 -0.00002658035038310029
vn 0.7071337680327552 0.7070797928107427 -0.00002658035038310029
vn 0.7071337680327552 0.7070797928107427 -0.00002658035038310029
vn 0.7071337680327552 -0.7070797928107427 -0.00002658035038310029
vn 0.7071337680327552 0.7070797928107427 -0.00002658035038310029
vn 0.7071337680327552 -0.7070797928107427 -0.00002658035038310029
f 1/1/1 2/2/2 3/3/3
f 4/4/4 5/5/5 6/6/6
f 7/7/7 8/8/8 9/9/9
f 10/10/10 11/11/11 12/12/12
f 13/13/13 14/14/14 15/15/15
f 16/16/16 17/17/17 18/18/18
f 19/19/19 20/20/20 21/21/21
f 22/22/22 23/23/23 24/24/24
f 25/25/25 26/26/26 27/27/27
f 28/28/28 29/29/29 30/30/30
f 31/31/31 32/32/32 33/33/33
f 34/34/34 35/35/35 36/36/36
f 37/37/37 38/38/38 39/39/39
f 40/40/40 41/41/41 42/42/42
f 43/43/43 44/44/44 45/45/45
f 46/46/46 47/47/47 48/48/48
f 49/49/49 50/50/50 51/51/51
f 52/52/52 53/53/53 54/54/54
f 55/55/55 56/56/56 57/57/57
f 58/58/58 59/59/59 60/60/60
