o Text.025
usemtl Material.001
v 0.1577055754727823 -0.26376700224304184 -0.05999964088894938
v 0.02052794106723832 0.2637660521087648 -0.05999942762589194
v 0.1577055754727823 0.2637660521087648 -0.05999964088894938
v 0.1577055754727823 -0.26376700224304184 -0.05999964088894938
v 0.02052794106723832 0.0751049536285402 -0.05999942762589194
v 0.02052794106723832 0.2637660521087648 -0.05999942762589194
v -0.02052831915011355 0.0751049536285402 -0.05999957803781797
v -0.15770677853051973 0.2637660521087648 -0.059999843225016836
v -0.02052831915011355 0.2637660521087648 -0.05999957803781797
v -0.02052831915011355 0.0751049536285402 -0.05999957803781797
v -0.15770677853051973 -0.26376700224304184 -0.059999843225016836
v -0.15770677853051973 0.2637660521087648 -0.059999843225016836
v 0.1577055754727823 -0.26376700224304184 -0.05999964088894938
v -0.02052831915011355 0.0751049536285402 -0.05999957803781797
v 0.02052794106723832 0.0751049536285402 -0.05999942762589194
v 0.1577055754727823 -0.26376700224304184 -0.05999964088894938
v 0.02052794106723832 -0.042196987289428556 -0.05999942762589194
v -0.02052831915011355 0.0751049536285402 -0.05999957803781797
v 0.02052794106723832 -0.042196987289428556 -0.05999942762589194
v -0.02052831915011355 -0.042196987289428556 -0.05999957803781797
v -0.02052831915011355 0.0751049536285402 -0.05999957803781797
v -0.02052831915011355 -0.042196987289428556 -0.05999957803781797
v -0.15770677853051973 -0.26376700224304184 -0.059999843225016836
v -0.02052831915011355 0.0751049536285402 -0.05999957803781797
v 0.1577055754727823 -0.26376700224304184 -0.05999964088894938
v 0.02052794106723832 -0.26376700224304184 -0.05999942762589194
v 0.02052794106723832 -0.042196987289428556 -0.05999942762589194
v -0.02052831915011355 -0.26376700224304184 -0.05999957803781797
v -0.15770677853051973 -0.26376700224304184 -0.059999843225016836
v -0.02052831915011355 -0.042196987289428556 -0.05999957803781797
v 0.1577055499478286 -0.26376700224304184 0.06000028888064968
v 0.1577063758540138 0.2637660521087648 0.06000076571780788
v 0.020527089636099838 0.2637660521087648 0.060000025306548466
v 0.1577055499478286 -0.26376700224304184 0.06000028888064968
v 0.020527089636099838 0.2637660521087648 0.060000025306548466
v 0.020527089636099838 0.0751049536285402 0.060000025306548466
v -0.020528344675067256 0.0751049536285402 0.06000035173178109
v -0.02052751876888248 0.2637660521087648 0.06000082856893929
v -0.1577068031241513 0.2637660521087648 0.06000008493148412
v -0.020528344675067256 0.0751049536285402 0.06000035173178109
v -0.1577068031241513 0.2637660521087648 0.06000008493148412
v -0.1577068031241513 -0.26376700224304184 0.06000008493148412
v 0.1577055499478286 -0.26376700224304184 0.06000028888064968
v 0.020527089636099838 0.0751049536285402 0.060000025306548466
v -0.020528344675067256 0.0751049536285402 0.06000035173178109
v 0.1577055499478286 -0.26376700224304184 0.06000028888064968
v -0.020528344675067256 0.0751049536285402 0.06000035173178109
v 0.020527089636099838 -0.042196987289428556 0.060000025306548466
v 0.020527089636099838 -0.042196987289428556 0.060000025306548466
v -0.020528344675067256 0.0751049536285402 0.06000035173178109
v -0.020528344675067256 -0.042196987289428556 0.06000035173178109
v -0.020528344675067256 -0.042196987289428556 0.06000035173178109
v -0.020528344675067256 0.0751049536285402 0.06000035173178109
v -0.1577068031241513 -0.26376700224304184 0.06000008493148412
v 0.1577055499478286 -0.26376700224304184 0.06000028888064968
v 0.020527089636099838 -0.042196987289428556 0.060000025306548466
v 0.020527089636099838 -0.26376700224304184 0.060000025306548466
v -0.020528344675067256 -0.26376700224304184 0.06000035173178109
v -0.020528344675067256 -0.042196987289428556 0.06000035173178109
v -0.1577068031241513 -0.26376700224304184 0.06000008493148412
v -0.02052831915011355 0.2637660521087648 -0.05999957803781797
v -0.15770677853051973 0.2637660521087648 -0.059999843225016836
v -0.1577068031241513 0.2637660521087648 0.06000008493148412
v -0.02052831915011355 0.2637660521087648 -0.05999957803781797
v -0.1577068031241513 0.2637660521087648 0.06000008493148412
v -0.02052751876888248 0.2637660521087648 0.06000082856893929
v -0.15770677853051973 0.2637660521087648 -0.059999843225016836
v -0.15770677853051973 -0.26376700224304184 -0.059999843225016836
v -0.1577068031241513 -0.26376700224304184 0.06000008493148412
v -0.15770677853051973 0.2637660521087648 -0.059999843225016836
v -0.1577068031241513 -0.26376700224304184 0.06000008493148412
v -0.1577068031241513 0.2637660521087648 0.06000008493148412
v -0.15770677853051973 -0.26376700224304184 -0.059999843225016836
v -0.02052831915011355 -0.26376700224304184 -0.05999957803781797
v -0.020528344675067256 -0.26376700224304184 0.06000035173178109
v -0.15770677853051973 -0.26376700224304184 -0.059999843225016836
v -0.020528344675067256 -0.26376700224304184 0.06000035173178109
v -0.1577068031241513 -0.26376700224304184 0.06000008493148412
v -0.02052831915011355 -0.26376700224304184 -0.05999957803781797
v -0.02052831915011355 -0.042196987289428556 -0.05999957803781797
v -0.020528344675067256 -0.042196987289428556 0.06000035173178109
v -0.02052831915011355 -0.26376700224304184 -0.05999957803781797
v -0.020528344675067256 -0.042196987289428556 0.06000035173178109
v -0.020528344675067256 -0.26376700224304184 0.06000035173178109
v -0.02052831915011355 -0.042196987289428556 -0.05999957803781797
v 0.02052794106723832 -0.042196987289428556 -0.05999942762589194
v 0.020527089636099838 -0.042196987289428556 0.060000025306548466
v -0.02052831915011355 -0.042196987289428556 -0.05999957803781797
v 0.020527089636099838 -0.042196987289428556 0.060000025306548466
v -0.020528344675067256 -0.042196987289428556 0.06000035173178109
v 0.02052794106723832 -0.042196987289428556 -0.05999942762589194
v 0.02052794106723832 -0.26376700224304184 -0.05999942762589194
v 0.020527089636099838 -0.26376700224304184 0.060000025306548466
v 0.02052794106723832 -0.042196987289428556 -0.05999942762589194
v 0.020527089636099838 -0.26376700224304184 0.060000025306548466
v 0.020527089636099838 -0.042196987289428556 0.060000025306548466
v 0.02052794106723832 -0.26376700224304184 -0.05999942762589194
v 0.1577055754727823 -0.26376700224304184 -0.05999964088894938
v 0.1577055499478286 -0.26376700224304184 0.06000028888064968
v 0.02052794106723832 -0.26376700224304184 -0.05999942762589194
v 0.1577055499478286 -0.26376700224304184 0.06000028888064968
v 0.020527089636099838 -0.26376700224304184 0.060000025306548466
v 0.1577055754727823 -0.26376700224304184 -0.05999964088894938
v 0.1577055754727823 0.2637660521087648 -0.05999964088894938
v 0.1577063758540138 0.2637660521087648 0.06000076571780788
v 0.1577055754727823 -0.26376700224304184 -0.05999964088894938
v 0.1577063758540138 0.2637660521087648 0.06000076571780788
v 0.1577055499478286 -0.26376700224304184 0.06000028888064968
v 0.1577055754727823 0.2637660521087648 -0.05999964088894938
v 0.02052794106723832 0.2637660521087648 -0.05999942762589194
v 0.020527089636099838 0.2637660521087648 0.060000025306548466
v 0.1577055754727823 0.2637660521087648 -0.05999964088894938
v 0.020527089636099838 0.2637660521087648 0.060000025306548466
v 0.1577063758540138 0.2637660521087648 0.06000076571780788
v 0.02052794106723832 0.2637660521087648 -0.05999942762589194
v 0.02052794106723832 0.0751049536285402 -0.05999942762589194
v 0.020527089636099838 0.0751049536285402 0.060000025306548466
v 0.02052794106723832 0.2637660521087648 -0.05999942762589194
v 0.020527089636099838 0.0751049536285402 0.060000025306548466
v 0.020527089636099838 0.2637660521087648 0.060000025306548466
v 0.02052794106723832 0.0751049536285402 -0.05999942762589194
v -0.02052831915011355 0.0751049536285402 -0.05999957803781797
v -0.020528344675067256 0.0751049536285402 0.06000035173178109
v 0.02052794106723832 0.0751049536285402 -0.05999942762589194
v -0.020528344675067256 0.0751049536285402 0.06000035173178109
v 0.020527089636099838 0.0751049536285402 0.060000025306548466
v -0.02052831915011355 0.0751049536285402 -0.05999957803781797
v -0.02052831915011355 0.2637660521087648 -0.05999957803781797
v -0.02052751876888248 0.2637660521087648 0.06000082856893929
v -0.02052831915011355 0.0751049536285402 -0.05999957803781797
v -0.02052751876888248 0.2637660521087648 0.06000082856893929
v -0.020528344675067256 0.0751049536285402 0.06000035173178109
vt 0.05664699897170067 0.5028319954872131
vt 0.05871700122952461 0.5028319954872131
vt 0.05768200010061264 0.5028319954872131
vt 0.05664699897170067 0.5028319954872131
vt 0.059751998633146286 0.5028319954872131
vt 0.05871700122952461 0.5028319954872131
vt 0.06078699976205826 0.5028319954872131
vt 0.05043499916791916 0.5028319954872131
vt 0.049400001764297485 0.5028319954872131
vt 0.06078699976205826 0.5028319954872131
vt 0.05147000029683113 0.5028319954872131
vt 0.05043499916791916 0.5028319954872131
vt 0.05664699897170067 0.5028319954872131
vt 0.06078699976205826 0.5028319954872131
vt 0.059751998633146286 0.5028319954872131
vt 0.05664699897170067 0.5028319954872131
vt 0.054575998336076736 0.5028319954872131
vt 0.06078699976205826 0.5028319954872131
vt 0.054575998336076736 0.5028319954872131
vt 0.05354100093245506 0.5028319954872131
vt 0.06078699976205826 0.5028319954872131
vt 0.05354100093245506 0.5028319954872131
vt 0.05147000029683113 0.5028319954872131
vt 0.06078699976205826 0.5028319954872131
vt 0.05664699897170067 0.5028319954872131
vt 0.05561099946498871 0.5028319954872131
vt 0.054575998336076736 0.5028319954872131
vt 0.05250599980354309 0.5028319954872131
vt 0.05147000029683113 0.5028319954872131
vt 0.05354100093245506 0.5028319954872131
vt 0.05664699897170067 0.5028319954872131
vt 0.05768200010061264 0.5028319954872131
vt 0.05871700122952461 0.5028319954872131
vt 0.05664699897170067 0.5028319954872131
vt 0.05871700122952461 0.5028319954872131
vt 0.059751998633146286 0.5028319954872131
vt 0.06078699976205826 0.5028319954872131
vt 0.049400001764297485 0.5028319954872131
vt 0.05043499916791916 0.5028319954872131
vt 0.06078699976205826 0.5028319954872131
vt 0.05043499916791916 0.5028319954872131
vt 0.05147000029683113 0.5028319954872131
vt 0.05664699897170067 0.5028319954872131
vt 0.059751998633146286 0.5028319954872131
vt 0.06078699976205826 0.5028319954872131
vt 0.05664699897170067 0.5028319954872131
vt 0.06078699976205826 0.5028319954872131
vt 0.054575998336076736 0.5028319954872131
vt 0.054575998336076736 0.5028319954872131
vt 0.06078699976205826 0.5028319954872131
vt 0.05354100093245506 0.5028319954872131
vt 0.05354100093245506 0.5028319954872131
vt 0.06078699976205826 0.5028319954872131
vt 0.05147000029683113 0.5028319954872131
vt 0.05664699897170067 0.5028319954872131
vt 0.054575998336076736 0.5028319954872131
vt 0.05561099946498871 0.5028319954872131
vt 0.05250599980354309 0.5028319954872131
vt 0.05354100093245506 0.5028319954872131
vt 0.05147000029683113 0.5028319954872131
vt 0.049400001764297485 0.5142199993133545
vt 0.050349000841379166 0.5142199993133545
vt 0.050349000841379166 0.5028319954872131
vt 0.049400001764297485 0.5142199993133545
vt 0.050349000841379166 0.5028319954872131
vt 0.049400001764297485 0.5028319954872131
vt 0.050349000841379166 0.5142199993133545
vt 0.051297999918460846 0.5142199993133545
vt 0.051297999918460846 0.5028319954872131
vt 0.050349000841379166 0.5142199993133545
vt 0.051297999918460846 0.5028319954872131
vt 0.050349000841379166 0.5028319954872131
vt 0.051297999918460846 0.5142199993133545
vt 0.052246998995542526 0.5142199993133545
vt 0.052246998995542526 0.5028319954872131
vt 0.051297999918460846 0.5142199993133545
vt 0.052246998995542526 0.5028319954872131
vt 0.051297999918460846 0.5028319954872131
vt 0.052246998995542526 0.5142199993133545
vt 0.053196001797914505 0.5142199993133545
vt 0.053196001797914505 0.5028319954872131
vt 0.052246998995542526 0.5142199993133545
vt 0.053196001797914505 0.5028319954872131
vt 0.052246998995542526 0.5028319954872131
vt 0.053196001797914505 0.5142199993133545
vt 0.054145000874996185 0.5142199993133545
vt 0.054145000874996185 0.5028319954872131
vt 0.053196001797914505 0.5142199993133545
vt 0.054145000874996185 0.5028319954872131
vt 0.053196001797914505 0.5028319954872131
vt 0.054145000874996185 0.5142199993133545
vt 0.055093999952077866 0.5142199993133545
vt 0.055093999952077866 0.5028319954872131
vt 0.054145000874996185 0.5142199993133545
vt 0.055093999952077866 0.5028319954872131
vt 0.054145000874996185 0.5028319954872131
vt 0.055093999952077866 0.5142199993133545
vt 0.056042999029159546 0.5142199993133545
vt 0.056042999029159546 0.5028319954872131
vt 0.055093999952077866 0.5142199993133545
vt 0.056042999029159546 0.5028319954872131
vt 0.055093999952077866 0.5028319954872131
vt 0.056042999029159546 0.5142199993133545
vt 0.056992001831531525 0.5142199993133545
vt 0.056992001831531525 0.5028319954872131
vt 0.056042999029159546 0.5142199993133545
vt 0.056992001831531525 0.5028319954872131
vt 0.056042999029159546 0.5028319954872131
vt 0.056992001831531525 0.5142199993133545
vt 0.057941000908613205 0.5142199993133545
vt 0.057941000908613205 0.5028319954872131
vt 0.056992001831531525 0.5142199993133545
vt 0.057941000908613205 0.5028319954872131
vt 0.056992001831531525 0.5028319954872131
vt 0.057941000908613205 0.5142199993133545
vt 0.0588890016078949 0.5142199993133545
vt 0.0588890016078949 0.5028319954872131
vt 0.057941000908613205 0.5142199993133545
vt 0.0588890016078949 0.5028319954872131
vt 0.057941000908613205 0.5028319954872131
vt 0.0588890016078949 0.5142199993133545
vt 0.05983800068497658 0.5142199993133545
vt 0.05983800068497658 0.5028319954872131
vt 0.0588890016078949 0.5142199993133545
vt 0.05983800068497658 0.5028319954872131
vt 0.0588890016078949 0.5028319954872131
vt 0.05983800068497658 0.5142199993133545
vt 0.06078699976205826 0.5142199993133545
vt 0.06078699976205826 0.5028319954872131
vt 0.05983800068497658 0.5142199993133545
vt 0.06078699976205826 0.5028319954872131
vt 0.05983800068497658 0.5028319954872131
vn -0.000012703840673810123 0 -0.9999999999193062
vn -0.000012703840673810123 0 -0.9999999999193062
vn -0.000012703840673810123 0 -0.9999999999193062
vn -0.000012703840673810123 0 -0.9999999999193062
vn -0.000012703840673810123 0 -0.9999999999193062
vn -0.000012703840673810123 0 -0.9999999999193062
vn -0.000012703840673810123 0 -0.9999999999193062
vn -0.000012703840673810123 0 -0.9999999999193062
vn -0.000012703840673810123 0 -0.9999999999193062
vn -0.000012703840673810123 0 -0.9999999999193062
vn -0.000012703840673810123 0 -0.9999999999193062
vn -0.000012703840673810123 0 -0.9999999999193062
vn -0.000012703840673810123 0 -0.9999999999193062
vn -0.000012703840673810123 0 -0.9999999999193062
vn -0.000012703840673810123 0 -0.9999999999193062
vn -0.000012703840673810123 0 -0.9999999999193062
vn -0.000012703840673810123 0 -0.9999999999193062
vn -0.000012703840673810123 0 -0.9999999999193062
vn -0.000012703840673810123 0 -0.9999999999193062
vn -0.000012703840673810123 0 -0.9999999999193062
vn -0.000012703840673810123 0 -0.9999999999193062
vn -0.000012703840673810123 0 -0.9999999999193062
vn -0.000012703840673810123 0 -0.9999999999193062
vn -0.000012703840673810123 0 -0.9999999999193062
vn -0.000012703840673810123 0 -0.9999999999193062
vn -0.000012703840673810123 0 -0.9999999999193062
vn -0.000012703840673810123 0 -0.9999999999193062
vn -0.000012703840673810123 0 -0.9999999999193062
vn -0.000012703840673810123 0 -0.9999999999193062
vn -0.000012703840673810123 0 -0.9999999999193062
vn 0.000012703840673810123 0 0.9999999999193062
vn 0.000012703840673810123 0 0.9999999999193062
vn 0.000012703840673810123 0 0.9999999999193062
vn 0.000012703840673810123 0 0.9999999999193062
vn 0.000012703840673810123 0 0.9999999999193062
vn 0.000012703840673810123 0 0.9999999999193062
vn 0.000012703840673810123 0 0.9999999999193062
vn 0.000012703840673810123 0 0.9999999999193062
vn 0.000012703840673810123 0 0.9999999999193062
vn 0.000012703840673810123 0 0.9999999999193062
vn 0.000012703840673810123 0 0.9999999999193062
vn 0.000012703840673810123 0 0.9999999999193062
vn 0.000012703840673810123 0 0.9999999999193062
vn 0.000012703840673810123 0 0.9999999999193062
vn 0.000012703840673810123 0 0.9999999999193062
vn 0.000012703840673810123 0 0.9999999999193062
vn 0.000012703840673810123 0 0.9999999999193062
vn 0.000012703840673810123 0 0.9999999999193062
vn 0.000012703840673810123 0 0.9999999999193062
vn 0.000012703840673810123 0 0.9999999999193062
vn 0.000012703840673810123 0 0.9999999999193062
vn 0.000012703840673810123 0 0.9999999999193062
vn 0.000012703840673810123 0 0.9999999999193062
vn 0.000012703840673810123 0 0.9999999999193062
vn 0.000012703840673810123 0 0.9999999999193062
vn 0.000012703840673810123 0 0.9999999999193062
vn 0.000012703840673810123 0 0.9999999999193062
vn 0.000012703840673810123 0 0.9999999999193062
vn 0.000012703840673810123 0 0.9999999999193062
vn 0.000012703840673810123 0 0.9999999999193062
vn 0.7071337680327552 0.7070797928107427 -0.00002658035038310029
vn -0.7071337680327552 0.7070797928107427 0.00002658035038310029
vn -0.7071337680327552 0.7070797928107427 0.00002658035038310029
vn 0.7071337680327552 0.7070797928107427 -0.00002658035038310029
vn -0.7071337680327552 0.7070797928107427 0.00002658035038310029
vn 0.7071337680327552 0.7070797928107427 -0.00002658035038310029
vn -0.7071337680327552 0.7070797928107427 0.00002658035038310029
vn -0.7071337680327552 -0.7070797928107427 0.00002658035038310029
vn -0.7071337680327552 -0.7070797928107427 0.00002658035038310029
vn -0.7071337680327552 0.7070797928107427 0.00002658035038310029
vn -0.7071337680327552 -0.7070797928107427 0.00002658035038310029
vn -0.7071337680327552 0.7070797928107427 0.00002658035038310029
vn -0.7071337680327552 -0.7070797928107427 0.00002658035038310029
vn 0.7071337680327552 -0.7070797928107427 -0.00002658035038310029
vn 0.7071337680327552 -0.7070797928107427 -0.00002658035038310029
vn -0.7071337680327552 -0.7070797928107427 0.00002658035038310029
vn 0.7071337680327552 -0.7070797928107427 -0.00002658035038310029
vn -0.7071337680327552 -0.7070797928107427 0.00002658035038310029
vn 0.7071337680327552 -0.7070797928107427 -0.00002658035038310029
vn 0.7071337680327552 -0.7070797928107427 -0.00002658035038310029
vn 0.7071337680327552 -0.7070797928107427 -0.00002658035038310029
vn 0.7071337680327552 -0.7070797928107427 -0.00002658035038310029
vn 0.7071337680327552 -0.7070797928107427 -0.00002658035038310029
vn 0.7071337680327552 -0.7070797928107427 -0.00002658035038310029
vn 0.7071337680327552 -0.7070797928107427 -0.00002658035038310029
vn -0.7071337680327552 -0.7070797928107427 0.00002658035038310029
vn -0.7071337680327552 -0.7070797928107427 0.00002658035038310029
vn 0.7071337680327552 -0.7070797928107427 -0.00002658035038310029
vn -0.7071337680327552 -0.7070797928107427 0.00002658035038310029
vn 0.7071337680327552 -0.7070797928107427 -0.00002658035038310029
vn -0.7071337680327552 -0.7070797928107427 0.00002658035038310029
vn -0.7071337680327552 -0.7070797928107427 0.00002658035038310029
vn -0.7071337680327552 -0.7070797928107427 0.00002658035038310029
vn -0.7071337680327552 -0.7070797928107427 0.00002658035038310029
vn -0.7071337680327552 -0.7070797928107427 0.00002658035038310029
vn -0.7071337680327552 -0.7070797928107427 0.00002658035038310029
vn -0.7071337680327552 -0.7070797928107427 0.00002658035038310029
vn 0.7071337680327552 -0.7070797928107427 -0.00002658035038310029
vn 0.7071337680327552 -0.7070797928107427 -0.00002658035038310029
vn -0.7071337680327552 -0.7070797928107427 0.00002658035038310029
vn 0.7071337680327552 -0.7070797928107427 -0.00002658035038310029
vn -0.7071337680327552 -0.7070797928107427 0.00002658035038310029
vn 0.7071337680327552 -0.7070797928107427 -0.00002658035038310029
vn 0.7071337680327552 0.7070797928107427 -0.00002658035038310029
vn 0.7071337680327552 0.7070797928107427 -0.00002658035038310029
vn 0.7071337680327552 -0.7070797928107427 -0.00002658035038310029
vn 0.7071337680327552 0.7070797928107427 -0.00002658035038310029
vn 0.7071337680327552 -0.7070797928107427 -0.00002658035038310029
vn 0.7071337680327552 0.7070797928107427 -0.00002658035038310029
vn -0.7071337680327552 0.7070797928107427 0.00002658035038310029
vn -0.7071337680327552 0.7070797928107427 0.00002658035038310029
vn 0.7071337680327552 0.7070797928107427 -0.00002658035038310029
vn -0.7071337680327552 0.7070797928107427 0.00002658035038310029
vn 0.7071337680327552 0.7070797928107427 -0.00002658035038310029
vn -0.7071337680327552 0.7070797928107427 0.00002658035038310029
vn -0.7071337680327552 0.7070797928107427 0.00002658035038310029
vn -0.7071337680327552 0.7070797928107427 0.00002658035038310029
vn -0.7071337680327552 0.7070797928107427 0.00002658035038310029
vn -0.7071337680327552 0.7070797928107427 0.00002658035038310029
vn -0.7071337680327552 0.7070797928107427 0.00002658035038310029
vn -0.7071337680327552 0.7070797928107427 0.00002658035038310029
vn 0.7071337680327552 0.7070797928107427 -0.00002658035038310029
vn 0.7071337680327552 0.7070797928107427 -0.00002658035038310029
vn -0.7071337680327552 0.7070797928107427 0.00002658035038310029
vn 0.7071337680327552 0.7070797928107427 -0.00002658035038310029
vn -0.7071337680327552 0.7070797928107427 0.00002658035038310029
vn 0.7071337680327552 0.7070797928107427 -0.00002658035038310029
vn 0.7071337680327552 0.7070797928107427 -0.00002658035038310029
vn 0.7071337680327552 0.7070797928107427 -0.00002658035038310029
vn 0.7071337680327552 0.7070797928107427 -0.00002658035038310029
vn 0.7071337680327552 0.7070797928107427 -0.00002658035038310029
vn 0.7071337680327552 0.7070797928107427 -0.00002658035038310029
f 1/1/1 2/2/2 3/3/3
f 4/4/4 5/5/5 6/6/6
f 7/7/7 8/8/8 9/9/9
f 10/10/10 11/11/11 12/12/12
f 13/13/13 14/14/14 15/15/15
f 16/16/16 17/17/17 18/18/18
f 19/19/19 20/20/20 21/21/21
f 22/22/22 23/23/23 24/24/24
f 25/25/25 26/26/26 27/27/27
f 28/28/28 29/29/29 30/30/30
f 31/31/31 32/32/32 33/33/33
f 34/34/34 35/35/35 36/36/36
f 37/37/37 38/38/38 39/39/39
f 40/40/40 41/41/41 42/42/42
f 43/43/43 44/44/44 45/45/45
f 46/46/46 47/47/47 48/48/48
f 49/49/49 50/50/50 51/51/51
f 52/52/52 53/53/53 54/54/54
f 55/55/55 56/56/56 57/57/57
f 58/58/58 59/59/59 60/60/60
f 61/61/61 62/62/62 63/63/63
f 64/64/64 65/65/65 66/66/66
f 67/67/67 68/68/68 69/69/69
f 70/70/70 71/71/71 72/72/72
f 73/73/73 74/74/74 75/75/75
f 76/76/76 77/77/77 78/78/78
f 79/79/79 80/80/80 81/81/81
f 82/82/82 83/83/83 84/84/84
f 85/85/85 86/86/86 87/87/87
f 88/88/88 89/89/89 90/90/90
f 91/91/91 92/92/92 93/93/93
f 94/94/94 95/95/95 96/96/96
f 97/97/97 98/98/98 99/99/99
f 100/100/100 101/101/101 102/102/102
f 103/103/103 104/104/104 105/105/105
f 106/106/106 107/107/107 108/108/108
f 109/109/109 110/110/110 111/111/111
f 112/112/112 113/113/113 114/114/114
f 115/115/115 116/116/116 117/117/117
f 118/118/118 119/119/119 120/120/120
f 121/121/121 122/122/122 123/123/123
f 124/124/124 125/125/125 126/126/126
f 127/127/127 128/128/128 129/129/129
f 130/130/130 131/131/131 132/132/132
