o Text.023
usemtl Material.001
v 0.11165011356745946 -0.26376700224304184 -0.05218547344682234
v -0.025528346744269292 0.15819502053833023 -0.05218573702092355
v 0.11165011356745946 0.2637660521087648 -0.05218547344682234
v -0.025528346744269292 0.15819502053833023 -0.05218573702092355
v -0.12067305451833299 0.2637660521087648 -0.05218614463426885
v 0.11165011356745946 0.2637660521087648 -0.05218547344682234
v -0.025528346744269292 0.15819502053833023 -0.05218573702092355
v -0.12067305451833299 0.15819502053833023 -0.05218614463426885
v -0.12067305451833299 0.2637660521087648 -0.05218614463426885
v 0.11165011356745946 -0.26376700224304184 -0.05218547344682234
v -0.025528346744269292 0.05816197572326676 -0.05218573702092355
v -0.025528346744269292 0.15819502053833023 -0.05218573702092355
v 0.11165011356745946 -0.26376700224304184 -0.05218547344682234
v -0.025528346744269292 -0.042196987289428556 -0.05218573702092355
v -0.025528346744269292 0.05816197572326676 -0.05218573702092355
v -0.025528346744269292 -0.042196987289428556 -0.05218573702092355
v -0.11024646186602816 0.05816197572326676 -0.05218580232809966
v -0.025528346744269292 0.05816197572326676 -0.05218573702092355
v -0.025528346744269292 -0.042196987289428556 -0.05218573702092355
v -0.11024646186602816 -0.042196987289428556 -0.05218580232809966
v -0.11024646186602816 0.05816197572326676 -0.05218580232809966
v 0.11165011356745946 -0.26376700224304184 -0.05218547344682234
v -0.025528346744269292 -0.26376700224304184 -0.05218573702092355
v -0.025528346744269292 -0.042196987289428556 -0.05218573702092355
v 0.11165008699476786 -0.26376700224304184 0.06781445813751175
v 0.11165008699476786 0.2637660521087648 0.06781445813751175
v -0.025528372269223 0.15819406686401383 0.0678141927486755
v -0.025528372269223 0.15819406686401383 0.0678141927486755
v 0.11165008699476786 0.2637660521087648 0.06781445813751175
v -0.12067308050894798 0.2637660521087648 0.06781378594187926
v -0.025528372269223 0.15819406686401383 0.0678141927486755
v -0.12067308050894798 0.2637660521087648 0.06781378594187926
v -0.12067308050894798 0.15819406686401383 0.06781378594187926
v 0.11165008699476786 -0.26376700224304184 0.06781445813751175
v -0.025528372269223 0.15819406686401383 0.0678141927486755
v -0.025528372269223 0.05816197572326676 0.0678141927486755
v 0.11165008699476786 -0.26376700224304184 0.06781445813751175
v -0.025528372269223 0.05816197572326676 0.0678141927486755
v -0.025528372269223 -0.042196987289428556 0.0678141927486755
v -0.025528372269223 -0.042196987289428556 0.0678141927486755
v -0.025528372269223 0.05816197572326676 0.0678141927486755
v -0.11024648785664315 0.05816197572326676 0.06781412824804844
v -0.025528372269223 -0.042196987289428556 0.0678141927486755
v -0.11024648785664315 0.05816197572326676 0.06781412824804844
v -0.11024648785664315 -0.042196987289428556 0.06781412824804844
v 0.11165008699476786 -0.26376700224304184 0.06781445813751175
v -0.025528372269223 -0.042196987289428556 0.0678141927486755
v -0.025528372269223 -0.26376700224304184 0.0678141927486755
v 0.11165011356745946 -0.26376700224304184 -0.05218547344682234
v 0.11165011356745946 0.2637660521087648 -0.05218547344682234
v 0.11165008699476786 0.2637660521087648 0.06781445813751175
v 0.11165011356745946 -0.26376700224304184 -0.05218547344682234
v 0.11165008699476786 0.2637660521087648 0.06781445813751175
v 0.11165008699476786 -0.26376700224304184 0.06781445813751175
v 0.11165011356745946 0.2637660521087648 -0.05218547344682234
v -0.12067305451833299 0.2637660521087648 -0.05218614463426885
v -0.12067308050894798 0.2637660521087648 0.06781378594187926
v 0.11165011356745946 0.2637660521087648 -0.05218547344682234
v -0.12067308050894798 0.2637660521087648 0.06781378594187926
v 0.11165008699476786 0.2637660521087648 0.06781445813751175
v -0.12067305451833299 0.2637660521087648 -0.05218614463426885
v -0.12067305451833299 0.15819502053833023 -0.05218614463426885
v -0.12067308050894798 0.15819406686401383 0.06781378594187926
v -0.12067305451833299 0.2637660521087648 -0.05218614463426885
v -0.12067308050894798 0.15819406686401383 0.06781378594187926
v -0.12067308050894798 0.2637660521087648 0.06781378594187926
v -0.12067305451833299 0.15819502053833023 -0.05218614463426885
v -0.025528346744269292 0.15819502053833023 -0.05218573702092355
v -0.025528372269223 0.15819406686401383 0.0678141927486755
v -0.12067305451833299 0.15819502053833023 -0.05218614463426885
v -0.025528372269223 0.15819406686401383 0.0678141927486755
v -0.12067308050894798 0.15819406686401383 0.06781378594187926
v -0.025528346744269292 0.15819502053833023 -0.05218573702092355
v -0.025528346744269292 0.05816197572326676 -0.05218573702092355
v -0.025528372269223 0.05816197572326676 0.0678141927486755
v -0.025528346744269292 0.15819502053833023 -0.05218573702092355
v -0.025528372269223 0.05816197572326676 0.0678141927486755
v -0.025528372269223 0.15819406686401383 0.0678141927486755
v -0.025528346744269292 0.05816197572326676 -0.05218573702092355
v -0.11024646186602816 0.05816197572326676 -0.05218580232809966
v -0.11024648785664315 0.05816197572326676 0.06781412824804844
v -0.025528346744269292 0.05816197572326676 -0.05218573702092355
v -0.11024648785664315 0.05816197572326676 0.06781412824804844
v -0.025528372269223 0.05816197572326676 0.0678141927486755
v -0.11024646186602816 0.05816197572326676 -0.05218580232809966
v -0.11024646186602816 -0.042196987289428556 -0.05218580232809966
v -0.11024648785664315 -0.042196987289428556 0.06781412824804844
v -0.11024646186602816 0.05816197572326676 -0.05218580232809966
v -0.11024648785664315 -0.042196987289428556 0.06781412824804844
v -0.11024648785664315 0.05816197572326676 0.06781412824804844
v -0.11024646186602816 -0.042196987289428556 -0.05218580232809966
v -0.025528346744269292 -0.042196987289428556 -0.05218573702092355
v -0.025528372269223 -0.042196987289428556 0.0678141927486755
v -0.11024646186602816 -0.042196987289428556 -0.05218580232809966
v -0.025528372269223 -0.042196987289428556 0.0678141927486755
v -0.11024648785664315 -0.042196987289428556 0.06781412824804844
v -0.025528346744269292 -0.042196987289428556 -0.05218573702092355
v -0.025528346744269292 -0.26376700224304184 -0.05218573702092355
v -0.025528372269223 -0.26376700224304184 0.0678141927486755
v -0.025528346744269292 -0.042196987289428556 -0.05218573702092355
v -0.025528372269223 -0.26376700224304184 0.0678141927486755
v -0.025528372269223 -0.042196987289428556 0.0678141927486755
v -0.025528346744269292 -0.26376700224304184 -0.05218573702092355
v 0.11165011356745946 -0.26376700224304184 -0.05218547344682234
v 0.11165008699476786 -0.26376700224304184 0.06781445813751175
v -0.025528346744269292 -0.26376700224304184 -0.05218573702092355
v 0.11165008699476786 -0.26376700224304184 0.06781445813751175
v -0.025528372269223 -0.26376700224304184 0.0678141927486755
vt 0.09771200269460678 0.5264829993247986
vt 0.10047899931669235 0.5264829993247986
vt 0.09840399771928787 0.5264829993247986
vt 0.10047899931669235 0.5264829993247986
vt 0.09909500181674957 0.5264829993247986
vt 0.09840399771928787 0.5264829993247986
vt 0.10047899931669235 0.5264829993247986
vt 0.09978699684143066 0.5264829993247986
vt 0.09909500181674957 0.5264829993247986
vt 0.09771200269460678 0.5264829993247986
vt 0.10117000341415405 0.5264829993247986
vt 0.10047899931669235 0.5264829993247986
vt 0.09771200269460678 0.5264829993247986
vt 0.10324499756097794 0.5264829993247986
vt 0.10117000341415405 0.5264829993247986
vt 0.10324499756097794 0.5264829993247986
vt 0.10186199843883514 0.5264829993247986
vt 0.10117000341415405 0.5264829993247986
vt 0.10324499756097794 0.5264829993247986
vt 0.10255400091409683 0.5264829993247986
vt 0.10186199843883514 0.5264829993247986
vt 0.09771200269460678 0.5264829993247986
vt 0.10393700003623962 0.5264829993247986
vt 0.10324499756097794 0.5264829993247986
vt 0.09771200269460678 0.5264829993247986
vt 0.09840399771928787 0.5264829993247986
vt 0.10047899931669235 0.5264829993247986
vt 0.10047899931669235 0.5264829993247986
vt 0.09840399771928787 0.5264829993247986
vt 0.09909500181674957 0.5264829993247986
vt 0.10047899931669235 0.5264829993247986
vt 0.09909500181674957 0.5264829993247986
vt 0.09978699684143066 0.5264829993247986
vt 0.09771200269460678 0.5264829993247986
vt 0.10047899931669235 0.5264829993247986
vt 0.10117000341415405 0.5264829993247986
vt 0.09771200269460678 0.5264829993247986
vt 0.10117000341415405 0.5264829993247986
vt 0.10324499756097794 0.5264829993247986
vt 0.10324499756097794 0.5264829993247986
vt 0.10117000341415405 0.5264829993247986
vt 0.10186199843883514 0.5264829993247986
vt 0.10324499756097794 0.5264829993247986
vt 0.10186199843883514 0.5264829993247986
vt 0.10255400091409683 0.5264829993247986
vt 0.09771200269460678 0.5264829993247986
vt 0.10324499756097794 0.5264829993247986
vt 0.10393700003623962 0.5264829993247986
vt 0.09771200269460678 0.5327079892158508
vt 0.09833399951457977 0.5327079892158508
vt 0.09833399951457977 0.5264829993247986
vt 0.09771200269460678 0.5327079892158508
vt 0.09833399951457977 0.5264829993247986
vt 0.09771200269460678 0.5264829993247986
vt 0.09833399951457977 0.5327079892158508
vt 0.09895700216293335 0.5327079892158508
vt 0.09895700216293335 0.5264829993247986
vt 0.09833399951457977 0.5327079892158508
vt 0.09895700216293335 0.5264829993247986
vt 0.09833399951457977 0.5264829993247986
vt 0.09895700216293335 0.5327079892158508
vt 0.09957899898290634 0.5327079892158508
vt 0.09957899898290634 0.5264829993247986
vt 0.09895700216293335 0.5327079892158508
vt 0.09957899898290634 0.5264829993247986
vt 0.09895700216293335 0.5264829993247986
vt 0.09957899898290634 0.5327079892158508
vt 0.10020200163125992 0.5327079892158508
vt 0.10020200163125992 0.5264829993247986
vt 0.09957899898290634 0.5327079892158508
vt 0.10020200163125992 0.5264829993247986
vt 0.09957899898290634 0.5264829993247986
vt 0.10020200163125992 0.5327079892158508
vt 0.1008249968290329 0.5327079892158508
vt 0.1008249968290329 0.5264829993247986
vt 0.10020200163125992 0.5327079892158508
vt 0.1008249968290329 0.5264829993247986
vt 0.10020200163125992 0.5264829993247986
vt 0.1008249968290329 0.5327079892158508
vt 0.10144700109958649 0.5327079892158508
vt 0.10144700109958649 0.5264829993247986
vt 0.1008249968290329 0.5327079892158508
vt 0.10144700109958649 0.5264829993247986
vt 0.1008249968290329 0.5264829993247986
vt 0.10144700109958649 0.5327079892158508
vt 0.10206999629735947 0.5327079892158508
vt 0.10206999629735947 0.5264829993247986
vt 0.10144700109958649 0.5327079892158508
vt 0.10206999629735947 0.5264829993247986
vt 0.10144700109958649 0.5264829993247986
vt 0.10206999629735947 0.5327079892158508
vt 0.10269200056791306 0.5327079892158508
vt 0.10269200056791306 0.5264829993247986
vt 0.10206999629735947 0.5327079892158508
vt 0.10269200056791306 0.5264829993247986
vt 0.10206999629735947 0.5264829993247986
vt 0.10269200056791306 0.5327079892158508
vt 0.10331500321626663 0.5327079892158508
vt 0.10331500321626663 0.5264829993247986
vt 0.10269200056791306 0.5327079892158508
vt 0.10331500321626663 0.5264829993247986
vt 0.10269200056791306 0.5264829993247986
vt 0.10331500321626663 0.5327079892158508
vt 0.10393700003623962 0.5327079892158508
vt 0.10393700003623962 0.5264829993247986
vt 0.10331500321626663 0.5327079892158508
vt 0.10393700003623962 0.5264829993247986
vt 0.10331500321626663 0.5264829993247986
vn -0.000012703840673810123 0 -0.9999999999193062
vn -0.000012703840673810123 0 -0.9999999999193062
vn -0.000012703840673810123 0 -0.9999999999193062
vn -0.000012703840673810123 0 -0.9999999999193062
vn -0.000012703840673810123 0 -0.9999999999193062
vn -0.000012703840673810123 0 -0.9999999999193062
vn -0.000012703840673810123 0 -0.9999999999193062
vn -0.000012703840673810123 0 -0.9999999999193062
vn -0.000012703840673810123 0 -0.9999999999193062
vn -0.000012703840673810123 0 -0.9999999999193062
vn -0.000012703840673810123 0 -0.9999999999193062
vn -0.000012703840673810123 0 -0.9999999999193062
vn -0.000012703840673810123 0 -0.9999999999193062
vn -0.000012703840673810123 0 -0.9999999999193062
vn -0.000012703840673810123 0 -0.9999999999193062
vn -0.000012703840673810123 0 -0.9999999999193062
vn -0.000012703840673810123 0 -0.9999999999193062
vn -0.000012703840673810123 0 -0.9999999999193062
vn -0.000012703840673810123 0 -0.9999999999193062
vn -0.000012703840673810123 0 -0.9999999999193062
vn -0.000012703840673810123 0 -0.9999999999193062
vn -0.000012703840673810123 0 -0.9999999999193062
vn -0.000012703840673810123 0 -0.9999999999193062
vn -0.000012703840673810123 0 -0.9999999999193062
vn 0.000012703840673810123 0 0.9999999999193062
vn 0.000012703840673810123 0 0.9999999999193062
vn 0.000012703840673810123 0 0.9999999999193062
vn 0.000012703840673810123 0 0.9999999999193062
vn 0.000012703840673810123 0 0.9999999999193062
vn 0.000012703840673810123 0 0.9999999999193062
vn 0.000012703840673810123 0 0.9999999999193062
vn 0.000012703840673810123 0 0.9999999999193062
vn 0.000012703840673810123 0 0.9999999999193062
vn 0.000012703840673810123 0 0.9999999999193062
vn 0.000012703840673810123 0 0.9999999999193062
vn 0.000012703840673810123 0 0.9999999999193062
vn 0.000012703840673810123 0 0.9999999999193062
vn 0.000012703840673810123 0 0.9999999999193062
vn 0.000012703840673810123 0 0.9999999999193062
vn 0.000012703840673810123 0 0.9999999999193062
vn 0.000012703840673810123 0 0.9999999999193062
vn 0.000012703840673810123 0 0.9999999999193062
vn 0.000012703840673810123 0 0.9999999999193062
vn 0.000012703840673810123 0 0.9999999999193062
vn 0.000012703840673810123 0 0.9999999999193062
vn 0.000012703840673810123 0 0.9999999999193062
vn 0.000012703840673810123 0 0.9999999999193062
vn 0.000012703840673810123 0 0.9999999999193062
vn 0.7071337680327552 -0.7070797928107427 -0.00002658035038310029
vn 0.7071337680327552 0.7070797928107427 -0.00002658035038310029
vn 0.7071337680327552 0.7070797928107427 -0.00002658035038310029
vn 0.7071337680327552 -0.7070797928107427 -0.00002658035038310029
vn 0.7071337680327552 0.7070797928107427 -0.00002658035038310029
vn 0.7071337680327552 -0.7070797928107427 -0.00002658035038310029
vn 0.7071337680327552 0.7070797928107427 -0.00002658035038310029
vn -0.7071337680327552 0.7070797928107427 0.00002658035038310029
vn -0.7071337680327552 0.7070797928107427 0.00002658035038310029
vn 0.7071337680327552 0.7070797928107427 -0.00002658035038310029
vn -0.7071337680327552 0.7070797928107427 0.00002658035038310029
vn 0.7071337680327552 0.7070797928107427 -0.00002658035038310029
vn -0.7071337680327552 0.7070797928107427 0.00002658035038310029
vn -0.7071337680327552 -0.7070797928107427 0.00002658035038310029
vn -0.7071337680327552 -0.7070797928107427 0.00002658035038310029
vn -0.7071337680327552 0.7070797928107427 0.00002658035038310029
vn -0.7071337680327552 -0.7070797928107427 0.00002658035038310029
vn -0.7071337680327552 0.7070797928107427 0.00002658035038310029
vn -0.7071337680327552 -0.7070797928107427 0.00002658035038310029
vn -0.7071337680327552 -0.7070797928107427 0.00002658035038310029
vn -0.7071337680327552 -0.7070797928107427 0.00002658035038310029
vn -0.7071337680327552 -0.7070797928107427 0.00002658035038310029
vn -0.7071337680327552 -0.7070797928107427 0.00002658035038310029
vn -0.7071337680327552 -0.7070797928107427 0.00002658035038310029
vn -0.7071337680327552 -0.7070797928107427 0.00002658035038310029
vn -0.7071337680327552 0.7070797928107427 0.00002658035038310029
vn -0.7071337680327552 0.7070797928107427 0.00002658035038310029
vn -0.7071337680327552 -0.7070797928107427 0.00002658035038310029
vn -0.7071337680327552 0.7070797928107427 0.00002658035038310029
vn -0.7071337680327552 -0.7070797928107427 0.00002658035038310029
vn -0.7071337680327552 0.7070797928107427 0.00002658035038310029
vn -0.7071337680327552 0.7070797928107427 0.00002658035038310029
vn -0.7071337680327552 0.7070797928107427 0.00002658035038310029
vn -0.7071337680327552 0.7070797928107427 0.00002658035038310029
vn -0.7071337680327552 0.7070797928107427 0.00002658035038310029
vn -0.7071337680327552 0.7070797928107427 0.00002658035038310029
vn -0.7071337680327552 0.7070797928107427 0.00002658035038310029
vn -0.7071337680327552 -0.7070797928107427 0.00002658035038310029
vn -0.7071337680327552 -0.7070797928107427 0.00002658035038310029
vn -0.7071337680327552 0.7070797928107427 0.00002658035038310029
vn -0.7071337680327552 -0.7070797928107427 0.00002658035038310029
vn -0.7071337680327552 0.7070797928107427 0.00002658035038310029
vn -0.7071337680327552 -0.7070797928107427 0.00002658035038310029
vn -0.7071337680327552 -0.7070797928107427 0.00002658035038310029
vn -0.7071337680327552 -0.7070797928107427 0.00002658035038310029
vn -0.7071337680327552 -0.7070797928107427 0.00002658035038310029
vn -0.7071337680327552 -0.7070797928107427 0.00002658035038310029
vn -0.7071337680327552 -0.7070797928107427 0.00002658035038310029
vn -0.7071337680327552 -0.7070797928107427 0.00002658035038310029
vn -0.7071337680327552 -0.7070797928107427 0.00002658035038310029
vn -0.7071337680327552 -0.7070797928107427 0.00002658035038310029
vn -0.7071337680327552 -0.7070797928107427 0.00002658035038310029
vn -0.7071337680327552 -0.7070797928107427 0.00002658035038310029
vn -0.7071337680327552 -0.7070797928107427 0.00002658035038310029
vn -0.7071337680327552 -0.7070797928107427 0.00002658035038310029
vn 0.7071337680327552 -0.7070797928107427 -0.00002658035038310029
vn 0.7071337680327552 -0.7070797928107427 -0.00002658035038310029
vn -0.7071337680327552 -0.7070797928107427 0.00002658035038310029
vn 0.7071337680327552 -0.7070797928107427 -0.00002658035038310029
vn -0.7071337680327552 -0.7070797928107427 0.00002658035038310029
f 1/1/1 2/2/2 3/3/3
f 4/4/4 5/5/5 6/6/6
f 7/7/7 8/8/8 9/9/9
f 10/10/10 11/11/11 12/12/12
f 13/13/13 14/14/14 15/15/15
f 16/16/16 17/17/17 18/18/18
f 19/19/19 20/20/20 21/21/21
f 22/22/22 23/23/23 24/24/24
f 25/25/25 26/26/26 27/27/27
f 28/28/28 29/29/29 30/30/30
f 31/31/31 32/32/32 33/33/33
f 34/34/34 35/35/35 36/36/36
f 37/37/37 38/38/38 39/39/39
f 40/40/40 41/41/41 42/42/42
f 43/43/43 44/44/44 45/45/45
f 46/46/46 47/47/47 48/48/48
f 49/49/49 50/50/50 51/51/51
f 52/52/52 53/53/53 54/54/54
f 55/55/55 56/56/56 57/57/57
f 58/58/58 59/59/59 60/60/60
f 61/61/61 62/62/62 63/63/63
f 64/64/64 65/65/65 66/66/66
f 67/67/67 68/68/68 69/69/69
f 70/70/70 71/71/71 72/72/72
f 73/73/73 74/74/74 75/75/75
f 76/76/76 77/77/77 78/78/78
f 79/79/79 80/80/80 81/81/81
f 82/82/82 83/83/83 84/84/84
f 85/85/85 86/86/86 87/87/87
f 88/88/88 89/89/89 90/90/90
f 91/91/91 92/92/92 93/93/93
f 94/94/94 95/95/95 96/96/96
f 97/97/97 98/98/98 99/99/99
f 100/100/100 101/101/101 102/102/102
f 103/103/103 104/104/104 105/105/105
f 106/106/106 107/107/107 108/108/108
